<svg width="41" height="40" viewBox="0 0 41 40" fill="none" xmlns="http://www.w3.org/2000/svg">
<g clip-path="url(#clip0)">
<path d="M27.2266 17.2134V13.0206C27.2266 12.4741 26.7724 12.0309 26.2121 12.0309H14.7879C14.2276 12.0309 13.7734 12.4741 13.7734 13.0206V17.2134H27.2266Z" fill="white"/>
<path d="M32.4563 29.715C32.0294 29.6017 31.5896 29.8474 31.4735 30.2637C30.1313 35.0763 25.6191 38.4375 20.5 38.4375C14.2301 38.4375 9.12891 33.4607 9.12891 27.3438C9.12891 21.2265 14.2301 16.25 20.5 16.25C25.6191 16.25 30.1313 19.6109 31.4735 24.4235C31.5896 24.8398 32.0294 25.0854 32.4563 24.9725C32.883 24.859 33.1348 24.4296 33.0188 24.0134C32.2133 21.1258 30.4078 18.6966 28.0273 17.0419V13.0206C28.0273 12.2293 27.4928 11.5579 26.7574 11.3315L32.7695 1.17188C32.9124 0.930176 32.9124 0.632324 32.7695 0.390625C32.6265 0.148926 32.3622 0 32.076 0H22.2273C21.9411 0 21.6768 0.148926 21.5338 0.390625L20.5 2.13715L19.4665 0.390625C19.3232 0.148926 19.0589 0 18.773 0H8.92402C8.6378 0 8.37348 0.148926 8.23053 0.390625C8.08758 0.632324 8.08758 0.930176 8.23053 1.17188L14.243 11.3315C13.5072 11.5579 12.9727 12.2293 12.9727 13.0206V17.0416C9.6785 19.339 7.52734 23.1009 7.52734 27.3438C7.52734 34.3225 13.3468 40 20.5 40C26.3398 40 31.4876 36.1649 33.0188 30.6738C33.1348 30.2576 32.883 29.8282 32.4563 29.715ZM22.6896 1.5625H30.689L25.4245 10.4587L21.4246 3.69965L22.6896 1.5625ZM18.3104 1.5625L24.0435 11.2497H16.0438L10.311 1.5625H18.3104ZM14.5742 13.0206C14.5742 12.9059 14.6699 12.8122 14.7879 12.8122H25.416H25.4179H25.4189H26.2121C26.3301 12.8122 26.4258 12.9056 26.4258 13.0206V16.0892C24.6331 15.1892 22.6121 14.6872 20.5 14.6872C18.3664 14.6872 16.3516 15.1926 14.5742 16.0867V13.0206Z" fill="white"/>
<path d="M24.6492 25.0705H22.524L21.874 23.1088C21.6807 22.5253 21.1286 22.1335 20.4998 22.1335C19.8714 22.1335 19.3193 22.5256 19.1257 23.1088L18.476 25.0705H16.3505C15.722 25.0705 15.1699 25.462 14.9766 26.0452C14.783 26.6284 14.9951 27.2617 15.5043 27.6209L17.2251 28.8351L16.5666 30.7974C16.3711 31.3806 16.5813 32.0148 17.0902 32.3755C17.5992 32.7362 18.2827 32.7353 18.7903 32.3737L20.4998 31.1563L22.2093 32.3737C22.4639 32.5549 22.7623 32.6456 23.0608 32.6456C23.3582 32.6456 23.6557 32.5555 23.9097 32.3755C24.4183 32.0148 24.6289 31.3806 24.4334 30.7974L23.7749 28.8351L25.4956 27.6209C26.0049 27.2617 26.217 26.6284 26.0233 26.0452C25.8297 25.462 25.2776 25.0705 24.6492 25.0705ZM22.3626 27.9031C22.0804 28.1021 21.9625 28.4564 22.0707 28.7793L22.7592 30.8307L20.9718 29.5581C20.6906 29.3579 20.309 29.3579 20.0278 29.5581L18.2407 30.8307L18.9289 28.7793C19.0375 28.4564 18.9195 28.1021 18.6371 27.9031L16.8369 26.633H19.0584C19.4059 26.633 19.7137 26.4145 19.8207 26.0919L20.4998 24.0417L21.1789 26.0919C21.2859 26.4145 21.5937 26.633 21.9412 26.633H24.1628L22.3626 27.9031Z" fill="white"/>
<path d="M20.5 18.4375C15.4663 18.4375 11.3711 22.4329 11.3711 27.3438C11.3711 32.2546 15.4663 36.25 20.5 36.25C25.5337 36.25 29.6289 32.2546 29.6289 27.3438C29.6289 22.4329 25.5337 18.4375 20.5 18.4375ZM20.5 34.6875C16.3494 34.6875 12.9727 31.3931 12.9727 27.3438C12.9727 23.2944 16.3494 20 20.5 20C24.6506 20 28.0273 23.2944 28.0273 27.3438C28.0273 31.3931 24.6506 34.6875 20.5 34.6875Z" fill="white"/>
<path d="M33.238 26.7914C33.0892 26.6458 32.8827 26.5622 32.6719 26.5622C32.4614 26.5622 32.2549 26.6458 32.106 26.7914C31.9568 26.9366 31.8711 27.1381 31.8711 27.3438C31.8711 27.5491 31.9568 27.7505 32.106 27.8958C32.2549 28.0414 32.4614 28.125 32.6719 28.125C32.8827 28.125 33.0892 28.0414 33.238 27.8958C33.3869 27.7505 33.4727 27.5491 33.4727 27.3438C33.4727 27.1381 33.3869 26.9366 33.238 26.7914Z" fill="white"/>
</g>
<defs>
<clipPath id="clip0">
<rect width="41" height="40" fill="white"/>
</clipPath>
</defs>
</svg>
