<svg width="42" height="42" viewBox="0 0 42 42" fill="none" xmlns="http://www.w3.org/2000/svg">
<g clip-path="url(#clip0)">
<path d="M20.0692 4.16631C19.9089 4.57952 20.1197 5.04216 20.5397 5.19981C20.6351 5.23547 20.733 5.25268 20.8297 5.25268C21.1574 5.25268 21.4662 5.05624 21.5902 4.73686C21.959 3.78562 21.7612 3.10402 21.6172 2.60635C21.5024 2.21096 21.4331 1.97229 21.5902 1.56721C21.7504 1.15399 21.5396 0.691354 21.1196 0.5337C20.6996 0.376046 20.2294 0.583124 20.0692 0.996339C19.7191 1.89941 19.9115 2.56193 20.0517 3.04584C20.1725 3.46156 20.245 3.71243 20.0692 4.16631Z" fill="white"/>
<path d="M15.3377 5.80103C15.1775 6.21424 15.388 6.67719 15.8079 6.83485C15.9036 6.87051 16.0016 6.88771 16.0982 6.88771C16.426 6.88771 16.7347 6.69127 16.8587 6.3719C17.2275 5.42034 17.0298 4.73905 16.8857 4.24138C16.771 3.84599 16.7017 3.60732 16.8587 3.20224C17.0189 2.78903 16.8082 2.32639 16.3882 2.16873C15.9682 2.01108 15.498 2.21847 15.3377 2.63137C14.9877 3.53413 15.18 4.19696 15.3202 4.68087C15.4407 5.09659 15.5135 5.34746 15.3377 5.80103Z" fill="white"/>
<path d="M24.8012 5.80102C24.641 6.21424 24.8514 6.67719 25.2714 6.83484C25.3668 6.8705 25.465 6.8877 25.5614 6.8877C25.8892 6.8877 26.1982 6.69126 26.3222 6.37189C26.691 5.42034 26.4932 4.73905 26.3489 4.24137C26.2341 3.84599 26.1651 3.60732 26.3222 3.20223C26.4824 2.78902 26.2716 2.32638 25.8516 2.16873C25.4317 2.01107 24.9614 2.21815 24.8012 2.63136C24.4512 3.53443 24.6432 4.19695 24.7837 4.68086C24.9042 5.09658 24.977 5.34745 24.8012 5.80102Z" fill="white"/>
<path d="M37.1143 13.2448H36.2769C36.2912 12.9783 36.3004 12.7115 36.3004 12.4441C36.3004 12.0018 35.936 11.6433 35.4865 11.6433H26.3936C26.4839 11.3924 26.5335 11.1231 26.5335 10.8425C26.5335 9.51777 25.4382 8.44016 24.0917 8.44016H17.5805C16.234 8.44016 15.1388 9.51777 15.1388 10.8425C15.1388 11.1231 15.1883 11.3924 15.2786 11.6433H6.18575C5.7362 11.6433 5.37185 12.0018 5.37185 12.4441C5.37185 12.7115 5.38107 12.9783 5.39506 13.2448H4.55794C3.21149 13.2448 2.11621 14.3225 2.11621 15.6469C2.11621 16.9716 3.21149 18.0492 4.55794 18.0492H6.45886C6.71797 18.6939 7.02096 19.3217 7.36878 19.9267C8.5356 21.9549 10.1749 23.7041 12.1308 25.0179L11.4132 27.6526C11.2968 28.0799 11.5544 28.5191 11.9887 28.6336C12.423 28.7478 12.869 28.4944 12.9854 28.0674L13.8549 24.8746C13.8556 24.8724 13.8562 24.8699 13.8568 24.8677L14.033 24.2212C14.0889 24.015 14.2231 23.8427 14.411 23.736C14.5986 23.6293 14.8173 23.6009 15.0268 23.6559C15.4592 23.7695 15.7171 24.208 15.6017 24.6331L11.611 39.2865C11.4952 39.7119 11.0492 39.9656 10.6171 39.852C10.4076 39.797 10.2324 39.665 10.1237 39.4801C10.0153 39.2956 9.98633 39.0804 10.042 38.8748L11.0896 35.0286C11.2059 34.6016 10.9484 34.1624 10.5141 34.0479C10.0798 33.9335 9.63342 34.1871 9.51738 34.6141L8.46979 38.4607C8.3016 39.08 8.3884 39.7269 8.71459 40.2818C9.04079 40.8371 9.56729 41.2337 10.1968 41.3992C10.407 41.4545 10.6181 41.4808 10.826 41.4808C11.9035 41.4808 12.8922 40.772 13.1831 39.7006L14.2559 35.7627L20.8361 31.4526L27.4164 35.7627L28.4891 39.7006C28.7803 40.7723 29.7688 41.4808 30.8462 41.4808C31.0542 41.4808 31.2653 41.4545 31.4754 41.3992C32.1049 41.2337 32.6314 40.8371 32.9576 40.2818C33.2838 39.7269 33.3709 39.08 33.2024 38.4601L29.5414 25.0179C31.4974 23.7041 33.1366 21.9549 34.3034 19.9267C34.6513 19.322 34.9543 18.6939 35.2134 18.0495H37.1143C38.4607 18.0495 39.556 16.9716 39.556 15.6472C39.556 14.3225 38.4604 13.2448 37.1143 13.2448ZM16.7666 10.8425C16.7666 10.4008 17.1316 10.0417 17.5805 10.0417H24.0917C24.5403 10.0417 24.9057 10.4008 24.9057 10.8425C24.9057 11.2839 24.5403 11.6433 24.0917 11.6433H17.5805C17.1316 11.6433 16.7666 11.2839 16.7666 10.8425ZM4.55794 16.4477C4.10902 16.4477 3.74403 16.0886 3.74403 15.6469C3.74403 15.2055 4.10902 14.8464 4.55794 14.8464H5.5661C5.65385 15.3863 5.77181 15.9209 5.91742 16.4477H4.55794ZM24.7731 26.057L24.9794 26.815L20.8361 29.5289L16.6925 26.815L16.8991 26.057H24.7731ZM14.8936 33.4211L16.248 28.4478L19.3673 30.4907L14.8936 33.4211ZM22.3046 30.4907L25.4242 28.4475L26.7786 33.4208L22.3046 30.4907ZM31.5482 39.4801C31.4398 39.665 31.2646 39.797 31.0551 39.852C30.6224 39.9656 30.1767 39.7119 30.0613 39.2865C30.0613 39.2865 30.0613 39.2862 30.0613 39.2859L26.6982 26.9376C26.6982 26.9373 26.6982 26.9373 26.6982 26.9373L26.0706 24.6335C25.9552 24.208 26.213 23.7695 26.6454 23.6559C26.715 23.6375 26.7859 23.6284 26.8562 23.6284C26.997 23.6284 27.136 23.6647 27.2612 23.736C27.4491 23.843 27.5833 24.0153 27.6392 24.2218L27.8154 24.8677C27.816 24.8699 27.8167 24.8724 27.8173 24.8746L31.6299 38.8742C31.6859 39.0804 31.657 39.2956 31.5482 39.4801ZM29.0563 23.3938C28.5606 22.3709 27.3776 21.8057 26.2251 22.1085C25.1263 22.3975 24.403 23.3844 24.4154 24.4555H17.2565C17.2692 23.3844 16.5459 22.3975 15.4468 22.1085C14.8173 21.943 14.1598 22.0287 13.5958 22.3497C13.1628 22.5958 12.8252 22.9584 12.6153 23.3935C10.3726 21.766 8.71555 19.5529 7.80403 17.037C7.79291 16.9976 7.77924 16.9594 7.7627 16.9228C7.35034 15.7513 7.09759 14.5161 7.02319 13.2445H34.649C34.5743 14.5161 34.3219 15.7513 33.9095 16.9225C33.8927 16.9594 33.8793 16.9976 33.8682 17.037C32.9564 19.5532 31.2993 21.7666 29.0563 23.3938ZM37.1143 16.4477H35.7548C35.9004 15.9209 36.0184 15.3863 36.1058 14.8464H37.114C37.5629 14.8464 37.9279 15.2055 37.9279 15.6469C37.9279 16.0886 37.5629 16.4477 37.1143 16.4477Z" fill="white"/>
<path d="M31.7422 14.8464H27.2661C26.8168 14.8464 26.4521 15.2049 26.4521 15.6472C26.4521 16.0895 26.8168 16.448 27.2661 16.448H31.7422C32.1918 16.448 32.5561 16.0895 32.5561 15.6472C32.5561 15.2049 32.1918 14.8464 31.7422 14.8464Z" fill="white"/>
<path d="M23.6038 14.8464H23.6031C23.1539 14.8464 22.7896 15.2049 22.7896 15.6472C22.7896 16.0895 23.1542 16.448 23.6038 16.448C24.0533 16.448 24.4177 16.0895 24.4177 15.6472C24.4177 15.2049 24.0533 14.8464 23.6038 14.8464Z" fill="white"/>
<path d="M11.0414 32.1148C11.1117 32.1329 11.1822 32.142 11.2515 32.142C11.6114 32.142 11.9405 31.9055 12.0375 31.5473L12.0378 31.5467C12.1535 31.1194 11.8954 30.6809 11.4611 30.567C11.0264 30.4528 10.5807 30.7071 10.4647 31.1344C10.3489 31.562 10.6071 32.0009 11.0414 32.1148Z" fill="white"/>
</g>
<defs>
<clipPath id="clip0">
<rect width="41.6721" height="41" fill="white" transform="translate(0 0.480835)"/>
</clipPath>
</defs>
</svg>
