<svg width="22" height="22" viewBox="0 0 22 22" fill="none" xmlns="http://www.w3.org/2000/svg">
<g clip-path="url(#clip0)">
<path d="M21.9576 12.0162C21.7601 10.0294 20.8724 8.15629 19.4581 6.74195C18.2495 5.53335 16.7701 4.75668 15.2135 4.41134V3.31957C15.8493 3.1614 16.3219 2.58591 16.3219 1.90188C16.3219 1.09629 15.6665 0.440918 14.8609 0.440918H11.7671C10.9615 0.440918 10.3062 1.09629 10.3062 1.90188C10.3062 2.58587 10.7788 3.16136 11.4145 3.31957V4.41439C9.86264 4.76119 8.38819 5.53679 7.18298 6.742C6.91924 7.00574 6.67603 7.28242 6.45341 7.56998C6.44262 7.56916 6.43183 7.56834 6.42083 7.56834H3.35879C3.12151 7.56834 2.9291 7.76072 2.9291 7.99804C2.9291 8.23536 3.12151 8.42773 3.35879 8.42773H5.86872C5.55367 8.95518 5.29963 9.5091 5.10627 10.0793H0.429694C0.192417 10.0793 0 10.2717 0 10.509C0 10.7463 0.192417 10.9387 0.429694 10.9387H4.86345C4.73961 11.4823 4.66854 12.0355 4.65019 12.5903H2.75004C2.51277 12.5903 2.32035 12.7827 2.32035 13.02C2.32035 13.2573 2.51277 13.4497 2.75004 13.4497H4.6639C4.70017 14.0059 4.78959 14.5592 4.9322 15.1013H2.14847C1.91119 15.1013 1.71878 15.2937 1.71878 15.531C1.71878 15.7683 1.91119 15.9607 2.14847 15.9607H5.20643C5.62796 17.0758 6.28673 18.1209 7.18298 19.0172C8.59865 20.4329 10.4737 21.3207 12.4625 21.5172C12.7464 21.5452 13.0305 21.5591 13.3142 21.5591C14.9909 21.5591 16.6464 21.0738 18.051 20.1591C18.2499 20.0296 18.3061 19.7634 18.1766 19.5645C18.0471 19.3657 17.7809 19.3094 17.5821 19.4389C14.5073 21.4412 10.3894 21.0083 7.79066 18.4095C4.74146 15.3603 4.74146 10.399 7.79066 7.34971C10.8398 4.30056 15.8012 4.30056 18.8504 7.34971C21.4457 9.94507 21.881 14.0594 19.8854 17.1327C19.7561 17.3317 19.8127 17.5979 20.0117 17.7271C20.2108 17.8563 20.4769 17.7997 20.6061 17.6007C21.6724 15.9586 22.1523 13.9754 21.9576 12.0162ZM11.1656 1.90192C11.1656 1.5702 11.4354 1.30035 11.7671 1.30035H14.8609C15.1927 1.30035 15.4625 1.5702 15.4625 1.90192C15.4625 2.23365 15.1927 2.50349 14.8609 2.50349H14.7838H11.8442H11.7671C11.4354 2.50349 11.1656 2.2336 11.1656 1.90192ZM12.2739 4.26666V3.36288H14.3541V4.26511C13.6634 4.18295 12.9645 4.18347 12.2739 4.26666Z" fill="#333333"/>
<path d="M19.1543 18.2834C19.0409 18.2834 18.9304 18.3294 18.8506 18.4093C18.7702 18.4893 18.7246 18.6001 18.7246 18.7131C18.7246 18.8261 18.7702 18.937 18.8506 19.0169C18.9304 19.0973 19.0409 19.1428 19.1543 19.1428C19.2673 19.1428 19.3777 19.0973 19.4581 19.0169C19.538 18.937 19.584 18.8261 19.584 18.7131C19.584 18.6001 19.5381 18.4893 19.4581 18.4093C19.3777 18.3294 19.2673 18.2834 19.1543 18.2834Z" fill="#333333"/>
<path d="M13.3206 6.21375C9.64507 6.21375 6.65479 9.20399 6.65479 12.8795C6.65479 16.5551 9.64507 19.5454 13.3206 19.5454C16.9961 19.5454 19.9864 16.5551 19.9864 12.8795C19.9864 9.20399 16.9961 6.21375 13.3206 6.21375ZM13.3206 18.686C10.1189 18.686 7.51417 16.0812 7.51417 12.8795C7.51417 9.6779 10.1189 7.07313 13.3206 7.07313C16.5223 7.07313 19.127 9.6779 19.127 12.8795C19.127 16.0812 16.5223 18.686 13.3206 18.686Z" fill="#333333"/>
<path d="M16.0384 9.55383L13.9101 11.6821C13.7321 11.5941 13.5319 11.5443 13.3203 11.5443C13.1086 11.5443 12.9085 11.5941 12.7305 11.6821L11.778 10.7296C11.6102 10.5618 11.3382 10.5618 11.1703 10.7296C11.0025 10.8974 11.0025 11.1694 11.1703 11.3372L12.1228 12.2897C12.0347 12.4677 11.9851 12.6679 11.9851 12.8795C11.9851 13.6158 12.584 14.2148 13.3203 14.2148C14.0566 14.2148 14.6555 13.6158 14.6555 12.8795C14.6555 12.6679 14.6058 12.4677 14.5178 12.2897L16.5836 10.2239L16.646 10.1615C16.8138 9.9937 16.8138 9.72162 16.646 9.55383C16.4782 9.38603 16.2062 9.38603 16.0384 9.55383ZM13.3203 13.3554C13.0579 13.3554 12.8445 13.1419 12.8445 12.8796C12.8445 12.6172 13.0579 12.4037 13.3203 12.4037C13.5827 12.4037 13.7961 12.6172 13.7961 12.8796C13.7961 13.1419 13.5827 13.3554 13.3203 13.3554Z" fill="#333333"/>
<path d="M17.9147 12.4551H17.5166C17.2793 12.4551 17.0869 12.6474 17.0869 12.8848C17.0869 13.1221 17.2793 13.3145 17.5166 13.3145H17.9147C18.152 13.3145 18.3444 13.1221 18.3444 12.8848C18.3444 12.6474 18.152 12.4551 17.9147 12.4551Z" fill="#333333"/>
<path d="M9.12414 12.4446H8.72607C8.4888 12.4446 8.29639 12.637 8.29639 12.8743C8.29639 13.1116 8.4888 13.304 8.72607 13.304H9.12414C9.36141 13.304 9.55382 13.1116 9.55382 12.8743C9.55382 12.637 9.36141 12.4446 9.12414 12.4446Z" fill="#333333"/>
<path d="M13.3257 9.11303C13.563 9.11303 13.7554 8.92066 13.7554 8.68334V8.28528C13.7554 8.04796 13.563 7.85559 13.3257 7.85559C13.0884 7.85559 12.896 8.04796 12.896 8.28528V8.68334C12.896 8.92066 13.0884 9.11303 13.3257 9.11303Z" fill="#333333"/>
<path d="M13.3154 16.646C13.0782 16.646 12.8857 16.8384 12.8857 17.0757V17.4737C12.8857 17.7111 13.0782 17.9034 13.3154 17.9034C13.5527 17.9034 13.7451 17.7111 13.7451 17.4737V17.0757C13.7451 16.8384 13.5527 16.646 13.3154 16.646Z" fill="#333333"/>
<path d="M0.429688 15.1011C0.31668 15.1011 0.20582 15.1471 0.125898 15.227C0.0459766 15.307 0 15.4178 0 15.5308C0 15.6443 0.0459336 15.7547 0.125898 15.8346C0.205863 15.9145 0.31668 15.9605 0.429688 15.9605C0.542695 15.9605 0.653555 15.9145 0.733434 15.8346C0.813356 15.7547 0.859375 15.6438 0.859375 15.5308C0.859375 15.4178 0.813398 15.307 0.733434 15.227C0.653555 15.1471 0.542695 15.1011 0.429688 15.1011Z" fill="#333333"/>
</g>
<defs>
<clipPath id="clip0">
<rect width="22" height="22" fill="white"/>
</clipPath>
</defs>
</svg>
