<svg width="24" height="24" viewBox="0 0 24 24" fill="none" xmlns="http://www.w3.org/2000/svg">
<path fill-rule="evenodd" clip-rule="evenodd" d="M12 9.57567L21.0736 0.502104C21.7431 -0.167368 22.8285 -0.167368 23.498 0.502104C24.1675 1.17158 24.1675 2.25701 23.498 2.92648L14.4244 12L23.498 21.0736C24.1675 21.7431 24.1675 22.8285 23.498 23.498C22.8285 24.1675 21.7431 24.1675 21.0736 23.498L12 14.4244L2.92648 23.498C2.25701 24.1675 1.17158 24.1675 0.502104 23.498C-0.167368 22.8285 -0.167368 21.7431 0.502104 21.0736L9.57567 12L0.502104 2.92648C-0.167368 2.25701 -0.167368 1.17158 0.502104 0.502104C1.17158 -0.167368 2.25701 -0.167368 2.92648 0.502104L12 9.57567Z" fill="#FF7B15"/>
</svg>
