<svg width="14" height="18" viewBox="0 0 14 18" fill="none" xmlns="http://www.w3.org/2000/svg">
<path d="M13.5362 10.532L13.5512 10.6983C13.5661 10.8626 13.5811 11.0272 13.5839 11.2035C13.6399 14.718 10.7695 17.5775 7.1855 17.5775C3.60153 17.5775 0.639918 14.718 0.583897 11.2035C0.581973 11.0828 0.580393 10.9625 0.585889 10.8421C0.634014 7.2243 2.43785 6.31827 2.51448 6.28162C2.61771 6.23112 2.73839 6.23494 2.84184 6.28749C2.94426 6.34074 3.01562 6.43828 3.03399 6.55032C3.03789 6.57382 3.40592 8.7341 4.88349 9.04257C4.87466 8.11234 4.8949 6.70386 5.19759 5.45098C5.63369 3.6514 6.93416 1.76534 8.51099 0.64631C8.6194 0.568129 8.76417 0.558103 8.88577 0.61932C9.00699 0.680205 9.08475 0.801575 9.08687 0.934366C9.11323 2.58789 9.9801 3.70858 10.9839 5.00626L10.9841 5.00663C12.0683 6.4082 13.2972 7.99721 13.5362 10.532Z" fill="#F32121"/>
</svg>
