<svg width="29" height="28" viewBox="0 0 29 28" fill="none" xmlns="http://www.w3.org/2000/svg">
<path d="M0.399979 14C0.399979 6.26801 6.66799 0 14.4 0C22.132 0 28.4 6.26801 28.4 14C28.4 21.732 22.132 28 14.4 28C6.66799 28 0.399979 21.732 0.399979 14Z" fill="url(#paint0_linear)"/>
<mask id="mask0" mask-type="alpha" maskUnits="userSpaceOnUse" x="0" y="0" width="29" height="28">
<path fill-rule="evenodd" clip-rule="evenodd" d="M0.399979 14C0.399979 6.26801 6.66799 0 14.4 0C22.132 0 28.4 6.26801 28.4 14C28.4 21.732 22.132 28 14.4 28C6.66799 28 0.399979 21.732 0.399979 14Z" fill="white"/>
</mask>
<g mask="url(#mask0)">
<path fill-rule="evenodd" clip-rule="evenodd" d="M14.4007 6.53333C12.3728 6.53333 12.1183 6.54219 11.3219 6.57844C10.527 6.61484 9.98441 6.74068 9.50965 6.92533C9.01855 7.11604 8.60197 7.37116 8.18695 7.78634C7.77161 8.20136 7.5165 8.61795 7.32516 9.10889C7.14005 9.5838 7.01405 10.1265 6.97827 10.9211C6.94264 11.7176 6.93331 11.9722 6.93331 14.0001C6.93331 16.0279 6.94233 16.2816 6.97842 17.0781C7.01498 17.873 7.14082 18.4156 7.32532 18.8903C7.51618 19.3814 7.7713 19.798 8.18648 20.213C8.60135 20.6284 9.01793 20.8841 9.50872 21.0748C9.98379 21.2595 10.5265 21.3853 11.3213 21.4217C12.1177 21.4579 12.3721 21.4668 14.3997 21.4668C16.4277 21.4668 16.6815 21.4579 17.4779 21.4217C18.2728 21.3853 18.816 21.2595 19.2911 21.0748C19.782 20.8841 20.198 20.6284 20.6128 20.213C21.0282 19.798 21.2833 19.3814 21.4746 18.8905C21.6582 18.4156 21.7842 17.8728 21.8215 17.0782C21.8573 16.2818 21.8666 16.0279 21.8666 14.0001C21.8666 11.9722 21.8573 11.7177 21.8215 10.9213C21.7842 10.1264 21.6582 9.5838 21.4746 9.10904C21.2833 8.61795 21.0282 8.20136 20.6128 7.78634C20.1975 7.371 19.7822 7.11589 19.2906 6.92533C18.8146 6.74068 18.2717 6.61484 17.4768 6.57844C16.6804 6.54219 16.4268 6.53333 14.3983 6.53333H14.4007ZM13.7308 7.8789C13.8609 7.8787 14.0008 7.87876 14.1518 7.87883L14.4007 7.8789C16.3943 7.8789 16.6306 7.88606 17.4179 7.92183C18.1459 7.95512 18.541 8.07677 18.8042 8.17897C19.1526 8.3143 19.4011 8.47608 19.6622 8.73742C19.9236 8.99876 20.0854 9.24765 20.221 9.5961C20.3232 9.85899 20.445 10.2541 20.4781 10.9821C20.5139 11.7692 20.5217 12.0057 20.5217 13.9984C20.5217 15.9911 20.5139 16.2275 20.4781 17.0146C20.4448 17.7426 20.3232 18.1377 20.221 18.4006C20.0857 18.7491 19.9236 18.9972 19.6622 19.2584C19.4009 19.5197 19.1528 19.6815 18.8042 19.8168C18.5413 19.9195 18.1459 20.0408 17.4179 20.0741C16.6307 20.1099 16.3943 20.1177 14.4007 20.1177C12.4069 20.1177 12.1706 20.1099 11.3835 20.0741C10.6555 20.0405 10.2604 19.9189 9.997 19.8167C9.64856 19.6813 9.39966 19.5196 9.13833 19.2582C8.87699 18.9969 8.71521 18.7486 8.57957 18.4C8.47737 18.1371 8.35557 17.742 8.32243 17.014C8.28665 16.2269 8.2795 15.9904 8.2795 13.9965C8.2795 12.0026 8.28665 11.7674 8.32243 10.9802C8.35572 10.2522 8.47737 9.85712 8.57957 9.59392C8.7149 9.24547 8.87699 8.99658 9.13833 8.73524C9.39966 8.47391 9.64856 8.31213 9.997 8.17648C10.2602 8.07381 10.6555 7.95248 11.3835 7.91903C12.0723 7.88792 12.3392 7.87859 13.7308 7.87703V7.8789ZM17.4904 10.0144C17.4904 9.51955 17.8917 9.11868 18.3864 9.11868V9.11837C18.881 9.11837 19.2824 9.51971 19.2824 10.0144C19.2824 10.5091 18.881 10.9104 18.3864 10.9104C17.8917 10.9104 17.4904 10.5091 17.4904 10.0144ZM14.4005 10.1656C12.283 10.1657 10.5662 11.8825 10.5662 14.0001C10.5662 16.1177 12.2831 17.8338 14.4007 17.8338C16.5183 17.8338 18.2345 16.1177 18.2345 14.0001C18.2345 11.8825 16.5181 10.1656 14.4005 10.1656ZM16.8896 14.0001C16.8896 12.6254 15.7752 11.5111 14.4007 11.5111C13.026 11.5111 11.9118 12.6254 11.9118 14.0001C11.9118 15.3746 13.026 16.489 14.4007 16.489C15.7752 16.489 16.8896 15.3746 16.8896 14.0001Z" fill="white"/>
</g>
<defs>
<linearGradient id="paint0_linear" x1="6.46665" y1="1.86667" x2="22.3333" y2="28" gradientUnits="userSpaceOnUse">
<stop stop-color="#F78241"/>
<stop offset="1" stop-color="#A801E7"/>
</linearGradient>
</defs>
</svg>