<svg width="30" height="32" viewBox="0 0 30 32" fill="none" xmlns="http://www.w3.org/2000/svg">
<g opacity="0.7">
<path d="M0 15.8036C0 7.0755 6.71573 0 15 0C23.2843 0 30 7.0755 30 15.8036C30 24.5316 23.2843 31.6071 15 31.6071C6.71573 31.6071 0 24.5316 0 15.8036Z" fill="url(#paint0_linear)"/>
<mask id="mask0" mask-type="alpha" maskUnits="userSpaceOnUse" x="0" y="0" width="30" height="32">
<path fill-rule="evenodd" clip-rule="evenodd" d="M0 15.8036C0 7.0755 6.71573 0 15 0C23.2843 0 30 7.0755 30 15.8036C30 24.5316 23.2843 31.6071 15 31.6071C6.71573 31.6071 0 24.5316 0 15.8036Z" fill="white"/>
</mask>
<g mask="url(#mask0)">
<path fill-rule="evenodd" clip-rule="evenodd" d="M15.0007 7.375C12.8281 7.375 12.5554 7.38501 11.702 7.42592C10.8504 7.46701 10.269 7.60907 9.76036 7.8175C9.23419 8.03279 8.78785 8.32077 8.34318 8.78943C7.89818 9.25793 7.62484 9.72818 7.41984 10.2824C7.2215 10.8185 7.0865 11.4311 7.04817 12.3281C7.01 13.2271 7 13.5146 7 15.8037C7 18.0927 7.00967 18.3791 7.04833 19.2782C7.0875 20.1755 7.22234 20.788 7.42 21.3239C7.62451 21.8783 7.89784 22.3485 8.34268 22.817C8.78718 23.2858 9.23352 23.5745 9.75936 23.7898C10.2684 23.9982 10.8499 24.1403 11.7014 24.1814C12.5547 24.2223 12.8272 24.2323 14.9997 24.2323C17.1726 24.2323 17.4444 24.2223 18.2978 24.1814C19.1495 24.1403 19.7315 23.9982 20.2405 23.7898C20.7665 23.5745 21.2121 23.2858 21.6566 22.817C22.1017 22.3485 22.375 21.8783 22.58 21.3241C22.7767 20.788 22.9117 20.1753 22.9517 19.2784C22.99 18.3793 23 18.0927 23 15.8037C23 13.5146 22.99 13.2273 22.9517 12.3282C22.9117 11.4309 22.7767 10.8185 22.58 10.2825C22.375 9.72818 22.1017 9.25793 21.6566 8.78943C21.2116 8.32059 20.7666 8.03261 20.24 7.8175C19.73 7.60907 19.1483 7.46701 18.2966 7.42592C17.4433 7.38501 17.1716 7.375 14.9982 7.375H15.0007ZM14.2831 8.89393C14.4224 8.8937 14.5723 8.89377 14.7341 8.89384L15.0007 8.89393C17.1368 8.89393 17.3899 8.902 18.2334 8.94239C19.0135 8.97997 19.4368 9.11728 19.7188 9.23265C20.0921 9.38542 20.3583 9.56804 20.6381 9.86305C20.9181 10.158 21.0915 10.439 21.2368 10.8323C21.3463 11.1291 21.4768 11.5751 21.5123 12.3969C21.5506 13.2854 21.559 13.5523 21.559 15.8017C21.559 18.0511 21.5506 18.318 21.5123 19.2066C21.4766 20.0284 21.3463 20.4744 21.2368 20.7711C21.0918 21.1645 20.9181 21.4445 20.6381 21.7394C20.3581 22.0344 20.0923 22.217 19.7188 22.3698C19.4371 22.4857 19.0135 22.6226 18.2334 22.6602C17.3901 22.7006 17.1368 22.7094 15.0007 22.7094C12.8646 22.7094 12.6114 22.7006 11.768 22.6602C10.988 22.6223 10.5647 22.485 10.2825 22.3696C9.90919 22.2168 9.64252 22.0342 9.36252 21.7392C9.08252 21.4442 8.90918 21.1639 8.76385 20.7704C8.65435 20.4737 8.52384 20.0277 8.48834 19.2059C8.45001 18.3173 8.44234 18.0504 8.44234 15.7996C8.44234 13.5488 8.45001 13.2833 8.48834 12.3948C8.52401 11.573 8.65435 11.127 8.76385 10.8299C8.90885 10.4365 9.08252 10.1556 9.36252 9.86059C9.64252 9.56558 9.90919 9.38296 10.2825 9.22984C10.5645 9.11395 10.988 8.97698 11.768 8.93923C12.5061 8.90411 12.7921 8.89357 14.2831 8.89182V8.89393ZM18.3111 11.3045C18.3111 10.7459 18.7411 10.2934 19.2711 10.2934V10.2931C19.8011 10.2931 20.2311 10.7461 20.2311 11.3045C20.2311 11.8629 19.8011 12.3159 19.2711 12.3159C18.7411 12.3159 18.3111 11.8629 18.3111 11.3045ZM15.0006 11.4752C12.7318 11.4753 10.8924 13.4133 10.8924 15.8037C10.8924 18.1941 12.7319 20.1312 15.0008 20.1312C17.2696 20.1312 19.1085 18.1941 19.1085 15.8037C19.1085 13.4132 17.2694 11.4752 15.0006 11.4752ZM17.6674 15.8037C17.6674 14.2519 16.4734 12.9941 15.0008 12.9941C13.5279 12.9941 12.3341 14.2519 12.3341 15.8037C12.3341 17.3552 13.5279 18.6132 15.0008 18.6132C16.4734 18.6132 17.6674 17.3552 17.6674 15.8037Z" fill="white"/>
</g>
</g>
<defs>
<linearGradient id="paint0_linear" x1="6.5" y1="2.10714" x2="24.8272" y2="30.7582" gradientUnits="userSpaceOnUse">
<stop stop-color="#F78241"/>
<stop offset="1" stop-color="#A801E7"/>
</linearGradient>
</defs>
</svg>
