<svg width="306" height="79" viewBox="0 0 306 79" fill="none" xmlns="http://www.w3.org/2000/svg">
<path fill-rule="evenodd" clip-rule="evenodd" d="M128.386 14.0867C132.031 11.7172 135.719 9.75793 139.44 7.98431L139.315 3.98908L139.249 1.8657L141.295 1.26118C150.063 -1.32423 156.42 0.58325 162.391 2.37414C166.342 3.55943 170.096 4.68536 174.088 4.05925L174.632 2.63323L176.832 2.97219L177.881 3.13303L178.02 3.15462L180.049 3.4666L181.22 3.6458L180.068 6.81305L177.556 13.7175L178.03 13.5513L177.741 17.7408L177.496 21.3205L177.364 23.2409L175.526 23.7882C175.007 23.9426 174.394 24.0808 173.796 24.2146C173.602 24.2578 173.408 24.301 173.218 24.3474L168.695 35.0787C169.179 35.6768 169.642 36.3158 170.06 36.9678C170.599 37.8109 171.079 38.6961 171.453 39.5748L172.412 41.8234L170.296 43.0497C168.354 44.1746 166.874 45.1278 165.554 46.0734C165.478 46.1274 165.403 46.1824 165.328 46.2364L165.392 46.3768C166.863 49.6736 168.585 54.106 169.876 58.4909C170.685 61.235 171.332 63.9834 171.662 66.4706C172.136 66.6444 172.625 66.8657 173.114 67.1464C174.499 67.9441 175.809 69.1801 176.64 71.1265L178.277 74.9565C172.957 74.9727 167.637 74.9878 162.316 75.003L162.17 72.3873C162.118 71.4633 161.361 69.6821 160.369 67.6386L155.319 68.8304L153.54 73.2218L152.838 74.9533C146.139 74.9533 139.472 74.9414 132.772 74.7914L133.16 71.7537C133.484 69.2298 134.683 68.0877 136.409 67.4454C136.991 63.8917 138.77 58.8871 141.144 54.1848C141.406 53.6656 141.677 53.1485 141.954 52.6357C140.238 53.4075 138.661 54.1265 137.085 54.8455C134.112 56.2013 131.143 57.5561 128.917 58.5417L125.972 59.8457L125.129 56.7227C123.963 52.4047 122.987 48.905 122.011 45.4063C120.145 38.7155 118.279 32.0291 116.643 25.524L116.257 23.9944L117.39 22.8836C120.964 19.3752 124.639 16.5221 128.386 14.0867Z" fill="white"/>
<path fill-rule="evenodd" clip-rule="evenodd" d="M306 75.2102C299.667 75.2102 293.333 75.2102 287 75.2102V73.0588L286.898 73.1538L286.584 73.4496L286.503 73.5273L286.346 73.6449L286.001 73.9051L285.843 74.0238L285.752 74.0778L285.377 74.3002L285.301 74.3466L285.118 74.4308L284.717 74.6154L284.55 74.6921L284.457 74.7234L284.028 74.8691L283.906 74.9101L283.757 74.9447L283.304 75.0494L283.214 75.0699L283.043 75.0926L282.567 75.1562L282.445 75.1724L282.318 75.1778L281.821 75.1994L281.712 75.2102H272.557C272.557 71.0034 272.557 66.7966 272.557 62.5898H274.233V56.3524H273.724V59.8716H269.559V62.5898H271.225C271.225 66.7966 271.225 71.0034 271.225 75.2102C267.458 75.2102 263.691 75.2102 259.924 75.2102V72.4391V65.3609V62.5898H261.623V59.9083H258.702V66.7048L258.691 66.7588L258.679 67.2986V67.4389L258.641 67.9743L258.62 68.1254L258.553 68.6512L258.531 68.8023L258.436 69.3129L258.404 69.4964L258.279 69.9908L258.213 70.1851L258.054 70.658L257.968 70.8739L257.773 71.3219L257.69 71.5162L257.665 71.5593L257.436 71.9771L257.39 72.057L257.273 72.2254L257.004 72.6108L256.869 72.8029L256.808 72.8709L256.5 73.2175L256.407 73.3211L256.239 73.4668L255.889 73.7712L255.721 73.917L255.596 73.999L255.203 74.257L255.066 74.3466L254.867 74.4405L254.428 74.65L254.251 74.7331L254.071 74.7903L253.586 74.9425L253.404 74.9997L253.24 75.0299L252.708 75.1239L252.591 75.1454L252.383 75.1562L251.804 75.1886L251.652 75.1973L251.5 75.1886L250.936 75.1573L250.728 75.1454L250.611 75.1249L250.085 75.031L249.927 75.0029L249.739 74.9447L249.253 74.7935L249.088 74.7417L248.917 74.664L248.471 74.4578L248.306 74.3822L248.168 74.2959L247.761 74.04L247.587 73.9321L247.469 73.8349L247.1 73.5338L247.01 73.4593L246.862 73.306L246.531 72.9627L246.418 72.845L246.326 72.7252L246.035 72.3441L245.978 72.2697L245.883 72.1175L245.628 71.704L245.565 71.6025L245.563 71.5982V72.4391V75.2102C236.943 75.2102 228.324 75.2102 219.704 75.2102C219.704 71.2603 219.704 67.3104 219.704 63.3605L219.652 63.3508L219.519 63.313L219.241 63.2342L219.145 63.2072L218.949 63.1263L218.685 63.0173L218.52 62.9492L218.426 62.8985L218.176 62.7636L218.045 62.6934L217.928 62.6124C217.928 66.8117 217.928 71.011 217.928 75.2102C206.119 75.2102 194.346 75.2102 182.737 75.2102C182.737 71.0034 182.737 66.7966 182.737 62.5898H184.326V56.3535H182.737C182.737 52.1218 182.737 47.8913 182.737 43.6597C188.998 43.6597 194.759 43.6597 200.994 43.6597V46.4307V53.5824V56.3535H198.223H197.723V57.0044L197.712 57.189L197.681 57.6467L197.665 57.8864L197.627 58.058L197.536 58.4682L197.503 58.6226L197.396 58.8903L197.252 59.2509L197.251 59.2541L197.314 59.3869L197.375 59.5974L197.502 60.0281L197.545 60.1738L197.578 60.3854L197.654 60.8744L197.681 61.0407L197.687 61.1778L197.712 61.7165L197.723 61.8363V62.5898H198.223H198.927H201.012L202.527 56.3524H201.927V53.5813V46.4307V43.6597C216.472 43.6597 231.017 43.6597 245.563 43.6597V46.0464L245.598 45.9914L245.679 45.8597L245.77 45.742L245.991 45.4603L246.103 45.3167L246.207 45.212L246.457 44.9594L246.563 44.8514L246.717 44.7316L246.999 44.5114L247.171 44.3764L247.291 44.3052L247.606 44.1195L247.774 44.0202L247.919 43.9576L248.264 43.8086L248.422 43.7406L248.6 43.6899L248.979 43.5808L249.077 43.5517L249.304 43.5161L249.715 43.4491L249.871 43.4232L250.007 43.4168L250.452 43.393H250.669L250.877 43.3995H251.04L251.241 43.4168L251.425 43.4491L251.622 43.4805L251.796 43.5128L251.991 43.556L252.206 43.61L252.399 43.6694L252.401 43.6704C261.928 43.6704 271.468 43.6597 281.009 43.6597L281.117 43.6704L281.613 43.6909L281.851 43.7125L282.325 43.7741L282.483 43.7946L282.585 43.8173L283.033 43.9177L283.195 43.9544L283.281 43.9824L283.703 44.1217L283.812 44.1573L283.974 44.2296L284.368 44.4067L284.527 44.4779L284.628 44.5362L284.995 44.7489L285.113 44.818L285.254 44.9227L285.59 45.1699L285.729 45.2735L285.818 45.3545L286.122 45.6351L286.219 45.7247L286.339 45.8629L286.611 46.177L286.743 46.3292L286.795 46.4048L287.035 46.7503L287.082 46.8161L287.187 47.0093L287.392 47.3861L287.454 47.5005L287.51 47.6344L287.681 48.0381L287.745 48.1903L287.778 48.2983L287.912 48.7301L287.951 48.8564L287.977 48.9794L288.074 49.4371L288.117 49.6757L288.175 50.1582L288.186 50.3741L288.207 50.8793V50.9765L288.24 56.8188V56.9591L288.237 57.0131H288.236V57.0141V57.0465L288.234 57.0919H288.233V57.1038V57.1469L288.23 57.1912H288.229V57.2128L288.227 57.2581H288.226L288.225 57.3067L288.216 57.5561L288.203 57.6424L288.194 57.704L288.185 57.7029L288.184 57.7104V57.7212L288.179 57.7633V57.8076L288.172 57.8443L288.166 57.8432L288.164 57.8616L288.156 57.9155L288.124 58.1001L288.044 58.4952L288.001 58.7111L287.935 58.94L288.039 59.0879L288.098 59.171L288.18 59.3156L288.296 59.5208L288.345 59.605L288.405 59.7377L288.505 59.9558L288.564 60.0875L288.602 60.1933L288.684 60.4265L288.749 60.6316L288.813 60.8788L288.857 61.0741L288.906 61.3376L288.939 61.5222L288.973 61.8028L288.984 61.9539L289.003 62.2551V62.3739L289.009 62.5898H289.085L290.6 56.3524H289.999C289.999 52.1208 289.999 47.8902 289.999 43.6597C294.232 43.6597 298.467 43.6597 302.701 43.6597C302.701 47.8902 302.701 52.1208 302.701 56.3524H302.255L303.735 62.5898H306C306 66.7966 306 71.0034 306 75.2102Z" fill="white"/>
<path fill-rule="evenodd" clip-rule="evenodd" d="M18.3246 51.3532V62.4602H19.8586L21.3731 56.2229H20.7729C20.7729 51.9912 20.7729 47.7607 20.7729 43.5301C25.0067 43.5301 29.2406 43.5301 33.4744 43.5301C33.4744 47.7607 33.4744 51.9912 33.4744 56.2229H33.0285L34.5085 62.4602L38.222 62.2875V56.3956H36.5423C36.5423 52.1056 36.5423 47.8157 36.5423 43.5269C45.0358 43.5269 53.5282 43.5269 62.0207 43.5269L62.1405 43.5377L62.5842 43.5571L62.6954 43.5614L62.8217 43.5787L63.2502 43.6359L63.4208 43.6586L63.5104 43.6791L63.9174 43.773L64.0264 43.7978L64.1775 43.8485L64.5629 43.9781L64.7356 44.0353L64.8231 44.0752L65.1847 44.2404L65.2743 44.2804L65.4448 44.3808L65.7816 44.5783L65.9241 44.6625L66.031 44.7413L66.3419 44.9701L66.4822 45.0738L66.5686 45.1547L66.8514 45.416L66.9939 45.5466L67.0684 45.6319L67.321 45.9234L67.3912 46.0032L67.4948 46.15L67.7172 46.4674L67.782 46.5592L67.8694 46.7168L68.0605 47.0611L68.1414 47.208L68.19 47.3213L68.3487 47.6905L68.3509 47.6948V46.2979V43.5269C80.315 43.5269 92.0653 43.5301 103.904 43.5301C103.904 47.7617 103.904 51.9923 103.904 56.2239H101.133H100.633V56.8749L100.623 57.0595L100.591 57.5172L100.575 57.7568L100.537 57.9285L100.448 58.3387L100.413 58.4931L100.306 58.7608L100.163 59.1213L100.162 59.1246L100.224 59.2573L100.286 59.4679L100.412 59.8986L100.455 60.0443L100.489 60.2559L100.565 60.7449L100.591 60.9111L100.598 61.0482L100.623 61.5869L100.633 61.7067V62.4602C102.318 62.4602 104.001 62.3739 105.686 62.3739L107.201 56.1365H106.6C106.6 51.9049 106.6 47.6743 106.6 43.4437C110.835 43.4437 115.068 43.4437 119.302 43.4437C119.302 47.6743 119.302 51.9049 119.302 56.1365H118.856L120.336 62.3739H122.602C122.602 66.5807 122.602 70.7875 122.602 74.9943C104.442 74.9943 86.5189 75.0839 68.3163 75.0839C68.3163 70.8188 68.3163 66.5526 68.3163 62.2875H70.0165V56.3956H68.8183V56.4075V56.4398L68.8097 56.9418V57.0606L68.7794 57.5323L68.7686 57.6953L68.7168 58.1368L68.6844 58.3322L68.6056 58.7435L68.5517 58.9702L68.4448 59.3523L68.421 59.4365L68.3465 59.6222L68.2073 59.9741L68.1436 60.1371L68.067 60.2775L67.8921 60.5992L67.7906 60.7859L67.6978 60.9133L67.484 61.2026L67.3696 61.3581L67.225 61.506L66.9723 61.7618L66.8406 61.8956L66.6582 62.0317L66.3635 62.254L66.1735 62.3965L66.017 62.4807L65.8292 62.5822L65.7752 62.6038L65.6219 62.6826L65.5679 62.715L65.4146 62.7895L65.3391 62.8219L65.1858 62.8909L65.1199 62.9233L64.9645 62.9881L64.8781 63.0205L64.7205 63.0799L64.6341 63.1122L64.4755 63.1662L64.3891 63.1889L64.3783 63.1921C64.3783 67.1561 64.3783 71.12 64.3783 75.0839C60.4932 75.0839 56.6081 75.0839 52.7229 75.0839V72.3128V70.4895L52.5427 70.9246L52.4908 71.0498L52.4239 71.174L52.2037 71.5799L52.1324 71.7115L52.0526 71.8281L51.7956 72.2027L51.7158 72.3215L51.6121 72.4413L51.3207 72.7803L51.216 72.9022L51.1145 72.9972L50.7906 73.3017L50.6449 73.4377L50.5521 73.5068L50.1958 73.7734L50.0997 73.8457L49.9465 73.9353L49.5611 74.1642L49.4315 74.2408L49.2901 74.3045L48.8756 74.4934L48.7914 74.5312L48.6154 74.5906L48.175 74.7395L48.0239 74.7903L47.9148 74.8151L47.4485 74.922L47.3567 74.9425L47.1894 74.9652L46.7004 75.0299L46.5762 75.0461L46.451 75.0515L45.9448 75.0731L45.8357 75.0839C36.4818 75.0839 27.1301 75.0807 17.773 75.0807V72.3096V70.7184L17.7493 70.7821L17.6942 70.9332L17.6305 71.0638L17.4125 71.5064L17.3639 71.6047L17.2613 71.7666L17.0001 72.1747L16.8619 72.3916L16.8274 72.4348L16.5262 72.8062L16.4755 72.8699L16.32 73.0231L15.9821 73.3589L15.9141 73.4258L15.7543 73.5532L15.3819 73.8511L15.2081 73.9904L15.1541 74.0249L14.7489 74.2851L14.6009 74.3801L14.5108 74.4254L14.0758 74.6467L13.9852 74.6931L13.8269 74.7547L13.3647 74.936L13.2728 74.9727L13.2573 74.977V75.3225V78.0936C10.5513 78.0936 7.84516 78.0936 5.13918 78.0936L5.10398 75.3549L5.09935 74.9889L5.04159 74.9727L4.95027 74.936L4.48867 74.7547L4.37856 74.7115L4.25054 74.6467L3.81495 74.4254L3.67354 74.3542L3.56602 74.2851L3.16034 74.0249L3.03868 73.9472L2.933 73.863L2.55961 73.564L2.45608 73.4819L2.33226 73.3589L1.99427 73.0231L1.88319 72.913L1.78862 72.7954L1.48766 72.424L1.41987 72.3398L1.31451 72.1747L1.05402 71.7666L0.950716 71.6047L0.902461 71.5064L0.684077 71.0638L0.619524 70.9321L0.56501 70.7821L0.392179 70.305L0.339181 70.1582L0.305603 70.0232L0.179198 69.5148L0.142819 69.3679L0.125112 69.2449L0.0479249 68.7041L0.0344345 68.6101L0.0263385 68.4331L0 67.8674V67.7476L0.0333555 51.3532V51.2226L0.0601223 50.6624L0.0687618 50.4788L0.081717 50.3914L0.161062 49.8549L0.185243 49.6908L0.215139 49.5731L0.344468 49.0658L0.383548 48.9125L0.431044 48.784L0.607977 48.3069L0.623946 48.2637L0.737948 48.037L0.959997 47.5933L1.05306 47.4066L1.10077 47.3332L1.36557 46.9219L1.43465 46.815L1.54962 46.6736L1.85393 46.2979L1.94796 46.1814L2.04878 46.081L2.39023 45.7409L2.49807 45.634L2.60667 45.5466L2.98233 45.2443L3.07636 45.1688L3.20957 45.0824L3.61611 44.8169L3.74587 44.7327L3.85425 44.6765L4.28939 44.4509L4.43081 44.3775L4.51674 44.343L4.97758 44.1551L5.0879 44.1109L5.0906 44.1098V43.4643V40.6932C7.81278 40.6932 10.5351 40.6932 13.2573 40.6932V43.4643V44.1098L13.3707 44.1551L13.8319 44.343L13.9673 44.3969L14.07 44.4509L14.5048 44.6765L14.5592 44.7046L14.7321 44.8169L15.139 45.0824L15.2718 45.1688L15.3657 45.2443L15.7414 45.5466L15.8504 45.633L15.9584 45.7409L16.2995 46.081L16.401 46.1814L16.4949 46.2979L16.7982 46.6736L16.9137 46.8161L16.9828 46.9219L17.2473 47.3332L17.2959 47.4077L17.3887 47.5933L17.61 48.037L17.7244 48.2637L17.7395 48.3069L17.9177 48.784L17.9652 48.9125L18.004 49.0658L18.1325 49.5731L18.1627 49.6919L18.1875 49.8549L18.2663 50.3925L18.2793 50.481L18.2879 50.6624L18.3138 51.2226L18.3246 51.3532Z" fill="white"/>
<path fill-rule="evenodd" clip-rule="evenodd" d="M15.5602 67.7423V51.3479L15.5332 50.7866L15.4544 50.2501L15.3249 49.7427L15.1478 49.2645L14.926 48.8219L14.6612 48.4106L14.357 48.0349L14.0153 47.6949L13.6399 47.3926L13.2331 47.1281L12.7984 46.9025L12.3371 46.7158L11.8535 46.569L11.349 46.4643L10.8269 46.4006L10.4919 46.3865V43.4589H7.86702V46.3865L7.53313 46.4006L7.01066 46.4643L6.50653 46.569L6.02226 46.7158L5.56142 46.9025L5.12617 47.1281L4.71974 47.3926L4.34408 47.6949L4.00262 48.0349L3.69831 48.4106L3.4334 48.8219L3.21135 49.2656L3.03431 49.7427L2.90499 50.2501L2.82576 50.7866L2.79898 51.3479L2.76562 67.7423L2.79196 68.309L2.86904 68.8488L2.99545 69.3583L3.16828 69.8354L3.38666 70.278L3.64726 70.6861L3.94811 71.0585L4.28621 71.3942L4.65961 71.6922L5.06529 71.9524L5.50086 72.1736L5.96246 72.355L6.44963 72.4975L6.9596 72.6L7.48887 72.6605L7.83572 72.6735L7.86962 75.3171H10.4919V72.6735L10.8369 72.6605L11.3663 72.6L11.8764 72.4975L12.3636 72.355L12.8259 72.1736L13.2609 71.9524L13.6665 71.6922L14.0393 71.3942L14.3777 71.0585L14.6786 70.6861L14.9393 70.278L15.1575 69.8354L15.3313 69.3583L15.4566 68.8499L15.5343 68.309L15.5602 67.7423ZM12.9355 63.5301L12.9157 63.9845L12.8559 64.3527L12.7579 64.642L12.6238 64.8579L12.4518 65.0166L12.2287 65.1277L11.9402 65.1979L11.5741 65.2217H10.4919V53.9042H11.5752L11.9434 53.9258L12.2344 53.9884L12.4576 54.092L12.6277 54.2377L12.7593 54.4396L12.8563 54.716L12.9157 55.0743L12.9355 55.5245V63.5301ZM7.86702 65.2217H6.7845L6.41898 65.1979L6.13076 65.1277L5.90783 65.0155L5.73501 64.8579L5.60179 64.642L5.50324 64.3527L5.44343 63.9845L5.42346 63.5301V55.5601L5.44365 55.11L5.50291 54.7505L5.60039 54.4752L5.73144 54.2734L5.90179 54.1276L6.12514 54.024L6.41606 53.9614L6.78655 53.9398L7.86702 53.9096V65.2217Z" fill="#282724"/>
<path fill-rule="evenodd" clip-rule="evenodd" d="M66.098 50.4573L66.0797 50.0071L66.0257 49.5732L65.9361 49.1597L65.8109 48.7668L65.6522 48.3987L65.4611 48.0532L65.2377 47.7359L64.984 47.4455L64.7023 47.1842L64.3914 46.9543L64.0546 46.7567L63.6918 46.5916L63.3065 46.4631L62.8984 46.3681L62.4699 46.3109L62.0262 46.2926H55.5341V53.6191H57.1986V65.0532H55.4995V72.3075H61.6127V65.0532H59.879V60.7784H62.0553L62.2356 60.7752L62.4159 60.7665L62.594 60.7514L62.7678 60.7309L62.9383 60.705L63.1057 60.6726L63.2719 60.6337L63.4338 60.5906L63.5936 60.542L63.7523 60.488L63.9099 60.4286L64.0653 60.3639L64.2186 60.2948L64.3719 60.2203L64.5252 60.1415L64.7131 60.04L65.0078 59.8187L65.2604 59.5629L65.473 59.2736L65.6479 58.9519L65.7872 58.6L65.894 58.2178L65.9728 57.8076L66.0257 57.365L66.0549 56.8933L66.0635 56.3913L66.098 50.4573ZM63.3842 56.3848L63.368 56.7734L63.3162 57.1005L63.2277 57.3672L63.1003 57.5734L63.0474 57.6219L62.9362 57.7212L62.8261 57.8141L62.717 57.8961L62.6113 57.9674L62.513 58.0224L62.4213 58.0634L62.3673 58.0807L62.2615 58.0883L62.2021 58.0915L62.1417 58.0958L62.0812 58.1002L62.0229 58.1034L61.9841 58.1055H59.8456V53.6191H61.9495L62.3241 53.6375L62.6318 53.6893L62.8757 53.7735L63.0625 53.8879L63.2007 54.0326L63.3 54.2161L63.3615 54.4504L63.3842 54.7494V56.3848Z" fill="#282724"/>
<path fill-rule="evenodd" clip-rule="evenodd" d="M50.5079 67.3849V62.5801L50.4906 61.9993L50.4377 61.4606L50.3524 60.9662L50.2326 60.5128L50.0815 60.1026L49.8969 59.7313L49.6821 59.3999L49.4359 59.1084L49.1628 58.8558L48.8616 58.6421L48.5367 58.465L48.1891 58.3247L47.8221 58.2189L47.4356 58.1466L47.0308 58.1034L46.613 58.0894H43.653V53.6191H46.5364L46.8386 53.6375L47.0686 53.6871L47.2391 53.766L47.3633 53.8717L47.4572 54.0196L47.5274 54.2215L47.5695 54.486L47.5835 54.8185V57.0941H50.2391V46.2926H39.3188V53.6191H40.9986V65.0532H39.3188V72.3075H45.8412L46.3486 72.2859L46.8376 72.2211L47.3028 72.1142L47.7444 71.9663L48.1589 71.7774L48.5453 71.5486L48.9016 71.283L49.2265 70.9786L49.518 70.6385L49.7738 70.265L49.994 69.8581L50.1754 69.4198L50.32 68.9524L50.4237 68.4558L50.4863 67.9312L50.5079 67.3849ZM47.8534 63.4804L47.8329 63.9003L47.7735 64.236L47.6753 64.4951L47.5403 64.6873L47.3633 64.8298L47.128 64.9323L46.8225 64.996L46.4349 65.0176L43.653 65.05V60.7989H46.4338L46.7469 60.8248L47.02 60.8982L47.2575 61.0148L47.4594 61.1713L47.6245 61.3667L47.7465 61.601L47.8253 61.8752L47.8534 62.1947V63.4804Z" fill="#282724"/>
<path fill-rule="evenodd" clip-rule="evenodd" d="M83.4747 72.3075V65.0532H81.7734V53.6191H83.4747V46.2926H77.7619V53.6191H79.0886V54.4763L75.4788 60.4632V53.6191H76.8044V46.2926H71.1262V53.6191H72.793V65.0532H71.0928V72.3075H76.8044V65.0532H75.4788V64.304L79.0886 58.3495V65.0532H77.7619V72.3075H83.4747Z" fill="#282724"/>
<path fill-rule="evenodd" clip-rule="evenodd" d="M297.658 59.8123H295.221L296.454 54.9804L297.658 59.8123ZM303.236 72.4338V65.3555H301.552L298.757 53.576H299.936V46.4254H292.775V53.576H294.119L291.26 65.3555H289.775V72.4338H295.904V65.3555H294.073L294.697 62.3038H298.215L298.911 65.3523L297.075 65.3555V72.4338H303.236Z" fill="#282724"/>
<path fill-rule="evenodd" clip-rule="evenodd" d="M209.586 59.8123H207.148L208.382 54.9804L209.586 59.8123ZM215.162 72.4338V65.3555H213.478L210.685 53.576H211.863V46.4254H204.703V53.576H206.047L203.187 65.3555H201.703V72.4338H207.83V65.3555H206.001L206.625 62.3038H210.142L210.838 65.3523L209.002 65.3555V72.4338H215.162Z" fill="#282724"/>
<path fill-rule="evenodd" clip-rule="evenodd" d="M28.4318 59.6827H25.9943L27.2282 54.8509L28.4318 59.6827ZM34.0085 72.3042V65.2259H32.3245L29.5308 53.4464H30.7085V46.2958H23.5482V53.4464H24.8932L22.0326 65.2259H20.5493V72.3042H26.6766V65.2259H24.8468L25.4708 62.1742H28.9878L29.6841 65.2227L27.8478 65.2259V72.3042H34.0085Z" fill="#282724"/>
<path fill-rule="evenodd" clip-rule="evenodd" d="M114.26 59.5964H111.823L113.057 54.7645L114.26 59.5964ZM119.837 72.2179V65.1396H118.153L115.358 53.3601H116.537V46.2095H109.377V53.3601H110.722L107.861 65.1396H106.378V72.2179H112.505V65.1396H110.674L111.299 62.0879H114.816L115.513 65.1364L113.676 65.1396V72.2179H119.837Z" fill="#282724"/>
<path fill-rule="evenodd" clip-rule="evenodd" d="M195.735 65.3469L195.483 65.3167L195.297 65.2594L195.165 65.1687L195.071 65.0338L195.005 64.8352L194.97 64.5588L194.958 64.1972V61.8309L194.933 61.2912L194.856 60.8022L194.73 60.3714L194.554 59.9979C194.266 59.6072 194.074 59.4614 193.626 59.2671L193.733 59.1959L193.999 59.0329L194.268 58.8083L194.501 58.5406L194.693 58.2276L194.837 57.867L194.926 57.4579L194.958 56.9991V54.7947L194.97 54.4353L195.006 54.1535L195.071 53.9441L195.167 53.7962L195.301 53.6937L195.487 53.6257L195.736 53.589L196.054 53.5771H198.229V46.4254H195L194.417 46.4804L193.919 46.6424L193.51 46.9058L193.189 47.2598L192.951 47.6981L192.788 48.2087L192.695 48.7841L192.667 49.4167V56.5997L192.648 56.944L192.596 57.2226L192.526 57.3985L192.427 57.6144L192.314 57.8206L192.19 58.0063L192.058 58.1574L191.927 58.2654L191.801 58.3301L191.661 58.3614H189.396V53.5771H191.016V46.4254H185.514V53.5771H187.103V65.3555H185.514V72.4338H191.016V65.3555H189.396V60.7439H191.672L191.8 60.7503C192.307 60.7525 192.583 61.0202 192.615 61.4153L192.635 61.7619L192.667 69.4047L192.674 69.7351L192.698 70.0513L192.737 70.3525L192.792 70.6364L192.864 70.9031L192.955 71.1524L193.065 71.3834L193.196 71.594L193.347 71.785L193.521 71.9523L193.716 72.097L193.934 72.2168L194.174 72.3118L194.437 72.3787L194.726 72.4208L195.034 72.4338H198.229V65.3555H196.054L195.735 65.3469Z" fill="#282724"/>
<path fill-rule="evenodd" clip-rule="evenodd" d="M98.6445 65.2173L98.393 65.1882L98.2063 65.1299L98.0746 65.0392L97.9806 64.9043L97.9148 64.7056L97.8792 64.4293L97.8673 64.0676V61.7014L97.8425 61.1616L97.7658 60.6726L97.6395 60.2419L97.4636 59.8684C97.1753 59.4776 96.9832 59.3319 96.5363 59.1376L96.6431 59.0663L96.9087 58.9033L97.1775 58.6788L97.4107 58.4111L97.6028 58.098L97.7464 57.7374L97.836 57.3283L97.8673 56.8695V54.6652L97.8792 54.3057L97.9159 54.024L97.9806 53.8145L98.0767 53.6666L98.2106 53.5641L98.3962 53.4961L98.6456 53.4594L98.9641 53.4475H101.138V46.2958H97.9105L97.3265 46.3509L96.8288 46.5128L96.4208 46.7762L96.0991 47.1303L95.8605 47.5685L95.6975 48.0792L95.6057 48.6545L95.5766 49.2871V56.4701L95.5572 56.8145L95.5054 57.093L95.4352 57.2689L95.3369 57.4848L95.2236 57.691L95.0995 57.8767L94.9678 58.0278L94.8371 58.1358L94.7108 58.2005L94.5705 58.2319H92.3057V53.4475H93.926V46.2958H88.4238V53.4475H90.0129V65.2259H88.4238V72.3042H93.926V65.2259H92.3057V60.6143H94.5813L94.7098 60.6208C95.2171 60.6229 95.4924 60.8907 95.5248 61.2858L95.5453 61.6323L95.5766 69.2751L95.5842 69.6055L95.6079 69.9218L95.6468 70.223L95.7018 70.5069L95.7741 70.7735L95.8648 71.0229L95.9749 71.2539L96.1056 71.4644L96.2567 71.6554L96.4305 71.8228L96.6259 71.9674L96.8439 72.0873L97.0836 72.1823L97.3481 72.2502L97.6352 72.2913L97.9439 72.3042H101.138V65.2259H98.9641L98.6445 65.2173Z" fill="#282724"/>
<path fill-rule="evenodd" clip-rule="evenodd" d="M228.196 72.4338V65.3555H226.543V53.576H228.196V46.4254H222.843V53.576H224.166V58.2567H221.602L221.299 58.2438L221.051 58.1995L220.853 58.1164L220.699 57.989L220.58 57.8033L220.495 57.541L220.442 57.1923L220.426 56.7465V53.576H221.715V46.4254H216.428V53.576H218.049V57.6533L218.062 57.9491L218.101 58.2427L218.168 58.5277L218.259 58.804L218.372 59.0696L218.51 59.3211L218.667 59.5586L218.846 59.7799L219.043 59.9828L219.259 60.1642L219.491 60.3229L219.74 60.4578L220.004 60.5658L220.282 60.6456L220.572 60.6953L220.871 60.7115L224.166 60.7471V65.3555H222.48V72.4338H228.196Z" fill="#282724"/>
<path fill-rule="evenodd" clip-rule="evenodd" d="M242.797 72.4338V62.0058H240.406V63.977L240.384 64.3008L240.319 64.575L240.214 64.8028L240.072 64.9874L239.891 65.131L239.673 65.2346L239.418 65.2972L239.12 65.3188L236.609 65.3533V60.7482H239.902V58.2567H236.609V53.576H239.255L239.565 53.5943L239.815 53.6505L240.01 53.7422L240.159 53.8729L240.269 54.0477L240.347 54.2755L240.392 54.5594L240.406 54.9048V57.0833H242.797V46.4243H232.555V53.576H234.219V65.3555H232.555V72.4338H242.797Z" fill="#282724"/>
<path fill-rule="evenodd" clip-rule="evenodd" d="M255.937 66.6995V61.5524H253.486V62.7464L253.467 63.3412L253.405 63.841L253.292 64.2479L253.121 64.5664L252.886 64.806L252.574 64.9744L252.168 65.0748L251.657 65.1072L251.125 65.0846L250.69 64.9896L250.343 64.8222L250.073 64.5837L249.87 64.2684L249.73 63.8723L249.649 63.3887L249.623 62.8176L249.657 55.6767L249.689 55.2071L249.781 54.785L249.937 54.4137L250.153 54.0985L250.431 53.8437L250.773 53.6537L251.182 53.535L251.658 53.4939L252.126 53.535L252.518 53.6537L252.836 53.8426L253.09 54.0952L253.281 54.4105L253.416 54.7818L253.495 55.205L253.521 55.6745L253.484 56.9041H255.937V46.4362H253.486V47.8849L253.442 47.8255L253.254 47.5869L253.068 47.3699L252.884 47.1724L252.7 46.9954L252.518 46.8367L252.336 46.6963L252.152 46.5733L251.966 46.4675L251.781 46.379L251.592 46.3056L251.4 46.2462L251.205 46.203L251.008 46.1717L250.806 46.1544L250.599 46.1479L250.153 46.1706L249.742 46.2375L249.363 46.3466L249.017 46.4956L248.703 46.6812L248.421 46.9014L248.171 47.1551L247.952 47.4358L247.761 47.7434L247.599 48.0749L247.465 48.4289L247.357 48.8014L247.275 49.19L247.218 49.5926L247.184 50.0082L247.173 50.4303V66.734L247.188 67.2749L247.237 67.8092L247.317 68.3339L247.431 68.8423L247.579 69.3346L247.763 69.8041L247.981 70.2478L248.237 70.6612L248.528 71.0423L248.858 71.3856L249.227 71.6868L249.635 71.9415L250.08 72.1466L250.566 72.2978L251.092 72.3917L251.658 72.423L252.237 72.3906L252.768 72.2967L253.253 72.1434L253.692 71.9351L254.085 71.6771L254.436 71.3727L254.746 71.025L255.016 70.6397L255.246 70.223L255.439 69.7761L255.599 69.3032L255.725 68.8099L255.82 68.2993L255.886 67.7736L255.924 67.2392L255.937 66.6995Z" fill="#282724"/>
<path fill-rule="evenodd" clip-rule="evenodd" d="M270.958 57.0952V46.4254H260.201V57.1319H262.627V54.948L262.643 54.6026L262.687 54.3176L262.764 54.0888L262.876 53.9128L263.025 53.7811L263.22 53.6883L263.469 53.6321L263.785 53.6138L264.399 53.5814V65.3555H262.7V72.4338H268.459V65.3555H266.793V53.5771H267.41L267.722 53.5954L267.972 53.6516L268.166 53.7444L268.315 53.8761L268.426 54.0521L268.504 54.2809L268.55 54.567L268.564 54.9113V57.0952H270.958Z" fill="#282724"/>
<path fill-rule="evenodd" clip-rule="evenodd" d="M282.935 64.4574L282.835 64.7553L282.69 64.9777L282.493 65.1375L282.233 65.2454L281.897 65.308L281.48 65.3274H279.417V60.7536H281.623L281.744 60.7558L281.89 60.7536L282.038 60.7493L282.182 60.746L282.314 60.745L282.422 60.7493L282.482 60.7568L282.651 60.8702L282.805 61.0397L282.916 61.2523L282.986 61.5146L283.01 61.832V63.5981L282.992 64.0752L282.935 64.4574ZM283.01 56.6008L282.992 57.0768L282.935 57.46L282.835 57.758L282.69 57.9793L282.494 58.139L282.233 58.2481L281.897 58.3096L281.48 58.329H279.417V53.576H281.613L281.938 53.5943L282.219 53.6494L282.457 53.7422L282.651 53.8718L282.805 54.0413L282.916 54.255L282.986 54.5173L283.01 54.8336V56.6008ZM286.08 61.33L285.999 61.098L285.899 60.8788L285.782 60.6737L285.646 60.4805L285.491 60.298L285.316 60.1253L285.121 59.9602L284.907 59.8026L284.67 59.6503L284.412 59.5035L284.374 59.483L284.391 59.4722L284.676 59.2207L284.913 58.9433L285.101 58.6367L285.24 58.3064L285.343 57.948L285.423 57.5529L285.43 57.4989L285.435 57.4611L285.44 57.4277L285.445 57.3909L285.451 57.3478L285.456 57.31L285.46 57.2765L285.47 57.215L285.472 57.1438L285.474 57.0995L285.475 57.0563L285.478 57.012L285.479 56.9667L285.481 56.9225L285.483 56.8782L285.485 56.8242L285.452 50.982L285.431 50.4778L285.373 49.9953L285.277 49.5365L285.143 49.1047L284.972 48.701L284.767 48.3253L284.528 47.9788L284.254 47.6646L283.95 47.384L283.614 47.1357L283.247 46.923L282.853 46.746L282.431 46.6078L281.983 46.5063L281.509 46.4459L281.014 46.4254H275.333V53.576H277.009V65.3555H275.333V72.4338H281.718L282.215 72.4122L282.691 72.3496L283.145 72.2438L283.574 72.0981L283.976 71.9146L284.351 71.6911L284.695 71.4309L285.01 71.1352L285.292 70.8048L285.54 70.44L285.754 70.0438L285.931 69.6163L286.071 69.1586L286.173 68.6739L286.234 68.1611L286.256 67.6214V62.742L286.249 62.4225L286.229 62.1224L286.195 61.8417L286.146 61.5773L286.08 61.33Z" fill="#282724"/>
<path fill-rule="evenodd" clip-rule="evenodd" d="M14.9073 67.7282V51.363L14.8831 50.8502L14.8137 50.3785L14.7015 49.937L14.5486 49.5257L14.3585 49.1457L14.132 48.7938L13.8721 48.4732L13.5796 48.1817L13.2568 47.9215L12.9043 47.6927L12.5251 47.4962L12.12 47.331L11.6923 47.2026L11.2428 47.1087L10.7746 47.0515L9.8396 47.0137V44.1109H8.52024V47.0137L7.58636 47.0515L7.11764 47.1087L6.66846 47.2026L6.24012 47.331L5.83552 47.4962L5.45575 47.6927L5.10372 47.9215L4.78063 48.1817L4.48841 48.4732L4.22814 48.7938L4.00166 49.1457L3.81145 49.5257L3.65892 49.937L3.54633 50.3785L3.4767 50.8502L3.45219 51.3641L3.41895 67.7282L3.44302 68.2475L3.51103 68.7246L3.62114 69.1672L3.77022 69.5785L3.95675 69.9574L4.17827 70.3039L4.43379 70.6202L4.72158 70.9063L5.0409 71.161L5.39033 71.3856L5.76902 71.5777L6.17448 71.7364L6.60606 71.8638L7.06173 71.9545L7.53897 72.0095L8.48094 72.0441L8.51452 74.6651H9.8396V72.0441L10.7876 72.0095L11.2653 71.9545L11.7209 71.8638L12.1525 71.7364L12.5584 71.5777L12.9364 71.3856L13.2859 71.161L13.6047 70.9063L13.893 70.6202L14.1485 70.305L14.3701 69.9574L14.5567 69.5785L14.7061 69.1672L14.8158 68.7246L14.8836 68.2475L14.9073 67.7282ZM13.5887 63.5441L13.5668 64.0514L13.492 64.5102L13.3525 64.9226L13.1319 65.2777L12.8271 65.5584L12.4555 65.7452L12.0392 65.8456L11.5958 65.8747H9.8396V53.2521H11.5947L12.0323 53.2769L12.4433 53.3655L12.814 53.5371L13.1239 53.8027L13.3495 54.1492L13.4913 54.5529L13.5667 55.0063L13.5887 55.5104V63.5441ZM8.52024 65.8747H6.76368L6.32075 65.8456L5.90472 65.7452L5.53369 65.5584L5.22766 65.2777L5.00808 64.9215L4.86807 64.5113L4.79347 64.0514L4.77102 63.5451V55.545L4.7937 55.0419L4.86861 54.5874L5.01122 54.1848L5.23607 53.8383L5.54664 53.5727L5.91702 53.4011L6.32777 53.3126L6.75882 53.2877L8.52024 53.2392V65.8747Z" fill="#E21C2A"/>
<path fill-rule="evenodd" clip-rule="evenodd" d="M65.4475 50.4681L65.4313 50.0611L65.3838 49.6833L65.3072 49.3281L65.2003 48.9945L65.0676 48.6847L64.9089 48.3987L64.7253 48.1374L64.5181 47.8989L64.2871 47.6862L64.0323 47.4973L63.7549 47.3343L63.4537 47.1983L63.1298 47.0892L62.7823 47.0094L62.4131 46.9597L62.0126 46.9424H56.1843V52.9682H57.85V65.7031H56.1509V71.6565H60.9622V65.7031H59.2296V60.1285H62.0493L62.2144 60.1253L62.3731 60.1177L62.5286 60.1037L62.6797 60.0864L62.8276 60.0638L62.9722 60.0357L63.1147 60.0033L63.2551 59.9655L63.3943 59.9223L63.5325 59.8759L63.6696 59.8241L63.8067 59.7669L63.9449 59.7043L64.0831 59.6384L64.2223 59.5661L64.3616 59.4916L64.5796 59.3275L64.7642 59.1397L64.9229 58.9238L65.0578 58.6755L65.1701 58.3916L65.2608 58.0688L65.3299 57.7072L65.3774 57.3067L65.4054 56.8673L65.4141 56.3837L65.4475 50.4681ZM64.0345 56.3989L64.0161 56.8382L63.9503 57.2549L63.8218 57.6424L63.6091 57.9889L63.4861 58.1045L63.3609 58.2146L63.2313 58.3225L63.0953 58.4261L62.9539 58.5212L62.806 58.6043L62.6527 58.6734L62.4897 58.7241L62.304 58.7371L62.2447 58.7403L62.1853 58.7446L62.1248 58.7489L62.0655 58.7532L62.0039 58.7565H59.1951V52.9682H61.9651L62.3947 52.9898L62.793 53.0567L63.1558 53.1819L63.4742 53.3773L63.7311 53.6461L63.9092 53.9754L64.0064 54.3424L64.0345 54.7256V56.3989Z" fill="#E21C2A"/>
<path fill-rule="evenodd" clip-rule="evenodd" d="M49.8569 67.3731V62.5898L49.8407 62.0403L49.7932 61.5481L49.7165 61.1044L49.6118 60.7093L49.4834 60.3595L49.3312 60.054L49.1584 59.7885L48.9652 59.5586L48.7515 59.3621L48.5161 59.1937L48.2592 59.0544L47.9775 58.9411L47.6709 58.8526L47.3406 58.7899L46.9854 58.7532L46.6022 58.7403H43.0031V52.9682H46.5558L46.9271 52.9909L47.2769 53.0664L47.5942 53.2132L47.8587 53.441L48.0465 53.7336L48.1599 54.0628L48.2182 54.4212L48.2344 54.8055V56.4431H49.5881V46.9424H39.9697V52.9682H41.6484V65.7031H39.9697V71.6565H45.8282L46.2924 71.6371L46.722 71.5809L47.1257 71.4881L47.5046 71.3596L47.8576 71.1999L48.1836 71.0067L48.4827 70.7832L48.7558 70.5274L49.0008 70.2424L49.2178 69.925L49.4056 69.5785L49.5632 69.1996L49.6896 68.7904L49.7813 68.35L49.8374 67.8804L49.8569 67.3731ZM48.5032 63.4955L48.4805 63.9726L48.4028 64.4098L48.2538 64.8017L48.0196 65.1363L47.7033 65.3911L47.3265 65.5563L46.9066 65.6426L46.4565 65.6674L43.0031 65.7085V60.149H46.4597L46.858 60.1814L47.2477 60.2861L47.6039 60.4599L47.9138 60.7007L48.1674 61.0029L48.3531 61.3581L48.4676 61.7564L48.5032 62.1666V63.4955Z" fill="#E21C2A"/>
<path fill-rule="evenodd" clip-rule="evenodd" d="M82.8238 71.6565V65.7031H81.1235V52.9693H82.8238V46.9424H78.4129V52.9693H79.7396V54.6576L74.8279 62.8014V52.9693H76.1535V46.9424H71.7772V52.9693H73.444V65.7031H71.7427V71.6565H76.1535V65.7031H74.8279V64.1227L79.7396 56.0232V65.7031H78.4129V71.6565H82.8238Z" fill="#E21C2A"/>
<path fill-rule="evenodd" clip-rule="evenodd" d="M29.2681 60.3347H25.1541L27.2365 52.1823L29.2681 60.3347ZM33.3561 71.6511V65.879H31.8092L28.7057 52.7933H30.0572V46.9478H24.202V52.7933H25.7241L22.5471 65.879H21.2031V71.6511H26.0242V65.879H24.0476L24.9382 61.5222H29.5099L30.503 65.8736L28.5016 65.8779V71.6511H33.3561Z" fill="#E21C2A"/>
<path fill-rule="evenodd" clip-rule="evenodd" d="M115.096 60.2483H110.982L113.064 52.0959L115.096 60.2483ZM119.184 71.5648V65.7927H117.637L114.533 52.707H115.885V46.8615H110.03V52.707H111.552L108.375 65.7927H107.03V71.5648H111.852V65.7927H109.874L110.766 61.4347H115.337L116.331 65.7873L114.329 65.7916V71.5648H119.184Z" fill="#E21C2A"/>
<path fill-rule="evenodd" clip-rule="evenodd" d="M98.5978 65.8693L98.2577 65.8283L97.9198 65.7236L97.6089 65.5109L97.3909 65.2L97.2764 64.8503L97.2279 64.4822L97.2149 64.0784V61.7165L97.1922 61.2275L97.1286 60.8162L97.0282 60.474L96.9008 60.2052C96.5068 59.6082 95.8278 59.3934 95.1865 59.2908C95.8342 59.0404 96.2714 58.6896 96.7205 58.2113L96.8835 58.0235L97.0174 57.8054L97.121 57.5453L97.189 57.2355L97.2149 56.8479V54.6555L97.2279 54.2528L97.2764 53.8836L97.3855 53.5339L97.5917 53.2165L97.8939 52.9855L98.235 52.8603L98.5859 52.8074L98.9529 52.7944H100.487V46.9489H97.9414L97.46 46.9942L97.1124 47.1076L96.8468 47.2782L96.6363 47.5113L96.4647 47.8265L96.3351 48.2303L96.2563 48.7215L96.2293 49.3022V56.4885L96.2067 56.8933L96.1354 57.2754L96.0372 57.5259L95.9217 57.7774L95.7835 58.03L95.6194 58.275L95.4251 58.4963L95.1995 58.6831L94.9372 58.8191L94.6435 58.8849H91.6533V52.7944H93.2736V46.9489H89.0776V52.7944H90.6667V65.879H89.0776V71.6511H93.2736V65.879H91.6533V59.9623H94.5982L94.731 59.9688L94.8692 59.9698L95.0181 59.972L95.1725 59.9763L95.3269 59.9893C95.6065 60.067 95.8472 60.2699 95.9778 60.4815L96.1052 60.827L96.1754 61.208L96.198 61.6129L96.2293 69.2665L96.2369 69.5742L96.2585 69.8559L96.2919 70.1182L96.3394 70.3579L96.3977 70.5759L96.4679 70.7703L96.5499 70.9397L96.6417 71.0887L96.7421 71.2161L96.8544 71.324L96.9785 71.4169L97.1221 71.4946L97.2862 71.5594L97.4762 71.609L97.6964 71.6403L97.9587 71.6511H100.487V65.879H98.9562L98.5978 65.8693Z" fill="#E21C2A"/>
<path fill-rule="evenodd" clip-rule="evenodd" d="M298.493 60.4643H294.38L296.462 52.3119L298.493 60.4643ZM302.582 71.7807V66.0086H301.034L297.931 52.9229H299.282V47.0774H293.428V52.9229H294.95L291.772 66.0086H290.428V71.7807H295.25V66.0086H293.273L294.164 61.6507H298.735L299.729 66.0032L297.727 66.0075V71.7807H302.582Z" fill="#E21C2A"/>
<path fill-rule="evenodd" clip-rule="evenodd" d="M210.421 60.4643H206.309L208.39 52.3119L210.421 60.4643ZM214.509 71.7807V66.0086H212.963L209.859 52.9229H211.211V47.0774H205.355V52.9229H206.877L203.7 66.0086H202.356V71.7807H207.178V66.0086H205.201L206.092 61.6507H210.663L211.656 66.0032L209.655 66.0075V71.7807H214.509Z" fill="#E21C2A"/>
<path fill-rule="evenodd" clip-rule="evenodd" d="M195.687 65.9998L195.347 65.9588L195.009 65.8541L194.698 65.6414L194.48 65.3305L194.366 64.9807L194.317 64.6126L194.304 64.2089V61.847L194.282 61.3579L194.217 60.9466L194.118 60.6045L193.99 60.3356C193.596 59.7387 192.917 59.5239 192.276 59.4213C192.924 59.1709 193.361 58.82 193.809 58.3418L193.973 58.154L194.107 57.9359L194.21 57.6758L194.278 57.3659L194.304 56.9784V54.7859L194.317 54.3833L194.366 54.0141L194.475 53.6643L194.681 53.347L194.983 53.1159L195.323 52.9907L195.675 52.9378L196.042 52.9249H197.576V47.0794H195.031L194.549 47.1247L194.202 47.237L193.936 47.4086L193.726 47.6418L193.553 47.957L193.424 48.3607L193.346 48.8519L193.319 49.4327V56.6189L193.296 57.0237L193.225 57.4059L193.127 57.6552L193.011 57.9079L192.872 58.1605L192.709 58.4055L192.514 58.6268L192.289 58.8135L192.026 58.9496L191.733 59.0154H188.743V52.9249H190.363V47.0794H186.167V52.9249H187.756V66.0095H186.167V71.7816H190.363V66.0095H188.743V60.0928H191.688L191.82 60.0992L191.959 60.1003L192.107 60.1014L192.261 60.1068L192.416 60.1197C192.696 60.1975 192.937 60.4004 193.067 60.612L193.195 60.9574L193.265 61.3385L193.287 61.7433L193.319 69.397L193.326 69.7046L193.348 69.9864L193.381 70.2487L193.428 70.4884L193.487 70.7064L193.557 70.9007L193.639 71.0702L193.731 71.2192L193.831 71.3466L193.944 71.4545L194.068 71.5473L194.211 71.6251L194.376 71.6898L194.566 71.7395L194.786 71.7708L195.048 71.7816H197.576V66.0095H196.046L195.687 65.9998Z" fill="#E21C2A"/>
<path fill-rule="evenodd" clip-rule="evenodd" d="M227.545 71.7807V66.0075H225.891V52.924H227.545V47.0774H223.496V52.924H224.82V58.9087H221.589L221.228 58.8936L220.867 58.8288L220.512 58.682L220.204 58.4262L219.987 58.0851L219.857 57.6921L219.792 57.2528L219.773 56.7584V52.924H221.063V47.0774H217.082V52.924H218.701V57.6382L218.713 57.8908L218.746 58.1239L218.797 58.3517L218.871 58.573L218.961 58.7846L219.069 58.9843L219.195 59.1721L219.336 59.3459L219.488 59.5035L219.656 59.6439L219.833 59.7648L220.02 59.8662L220.219 59.9483L220.427 60.0077L220.645 60.0454L220.894 60.0584L224.82 60.1016V66.0075H223.133V71.7807H227.545Z" fill="#E21C2A"/>
<path fill-rule="evenodd" clip-rule="evenodd" d="M242.145 71.7807V62.6589H241.06V63.9997L241.032 64.3991L240.94 64.7877L240.777 65.1439L240.54 65.4494L240.239 65.6891L239.894 65.8521L239.519 65.9449L239.148 65.9708L235.957 66.0162V60.0951H239.25V58.9098H235.957V52.924H239.274L239.656 52.9467L240.028 53.0287L240.371 53.1906L240.661 53.4432L240.863 53.7649L240.983 54.1179L241.044 54.4946L241.06 54.8908V56.4302H242.145V47.0774H233.208V52.924H234.871V66.0075H233.208V71.7807H242.145Z" fill="#E21C2A"/>
<path fill-rule="evenodd" clip-rule="evenodd" d="M255.277 66.6919V62.212H254.146V62.7571L254.126 63.393L254.055 63.9705L253.909 64.494L253.66 64.9604L253.288 65.3393L252.813 65.5941L252.269 65.729L251.664 65.7679L251.041 65.7409L250.475 65.6167L249.975 65.3771L249.568 65.0176L249.274 64.561L249.089 64.0374L248.992 63.4588L248.964 62.8316L248.998 55.6529L249.034 55.1132L249.15 54.5853L249.355 54.0974L249.652 53.6634L250.043 53.305L250.518 53.0416L251.059 52.884L251.658 52.8311L252.253 52.884L252.786 53.0459L253.245 53.3169L253.613 53.685L253.88 54.1233L254.056 54.608L254.152 55.1261L254.182 55.6659L254.165 56.2445H255.277V47.0957H254.146V49.8787L252.919 48.227L252.744 48.0057L252.577 47.8093L252.414 47.6355L252.254 47.4811L252.101 47.3472L251.951 47.2317L251.805 47.1346L251.661 47.0525L251.518 46.9835L251.375 46.9284L251.231 46.8842L251.083 46.8507L250.928 46.8269L250.768 46.8129L250.606 46.8075L250.223 46.828L249.887 46.882L249.586 46.9683L249.318 47.0839L249.077 47.2274L248.861 47.3958L248.668 47.5912L248.494 47.8136L248.34 48.0619L248.206 48.3372L248.091 48.6373L247.999 48.96L247.926 49.3044L247.875 49.666L247.844 50.0428L247.833 50.439V66.7254L247.849 67.236L247.893 67.7304L247.966 68.2108L248.071 68.6749L248.205 69.1186L248.368 69.5375L248.56 69.9283L248.781 70.2866L249.031 70.6116L249.308 70.8998L249.614 71.1492L249.949 71.3608L250.319 71.5302L250.723 71.6565L251.169 71.7353L251.658 71.7634L252.161 71.7353L252.61 71.6544L253.012 71.5281L253.368 71.3586L253.687 71.1502L253.973 70.902L254.228 70.6148L254.455 70.291L254.654 69.9326L254.823 69.5396L254.966 69.1165L255.08 68.6674L255.168 68.1978L255.229 67.7088L255.265 67.2079L255.277 66.6919Z" fill="#E21C2A"/>
<path fill-rule="evenodd" clip-rule="evenodd" d="M270.306 56.4432V47.0785H260.854V56.4788H261.976V54.934L261.992 54.5389L262.052 54.1611L262.171 53.8059L262.374 53.4853L262.662 53.2306L263.007 53.0665L263.379 52.9844L263.749 52.9618L265.053 52.8938V66.0086H263.354V71.7807H267.806V66.0086H266.141V52.924H267.43L267.813 52.9477L268.186 53.0298L268.531 53.1939L268.819 53.4486L269.021 53.7703L269.141 54.1244L269.2 54.5022L269.217 54.8973V56.4432H270.306Z" fill="#E21C2A"/>
<path fill-rule="evenodd" clip-rule="evenodd" d="M283.573 64.6107L283.428 65.0425L283.182 65.4192L282.832 65.7031L282.42 65.8748L281.973 65.9579L281.496 65.9805H278.764V60.1016H281.628L281.744 60.1027L281.876 60.1016L282.02 60.0962L282.172 60.0929L282.325 60.0919L282.474 60.0983L282.715 60.1275L283.082 60.3725L283.345 60.664L283.528 61.0148L283.633 61.4056L283.663 61.8061V63.611L283.643 64.1357L283.573 64.6107ZM283.663 56.6137L283.643 57.1373L283.573 57.6122L283.428 58.0451L283.182 58.4219L282.832 58.7058L282.42 58.8774L281.972 58.9595L281.496 58.9821H278.764V52.9229H281.633L282.02 52.9456L282.401 53.0201L282.76 53.1593L283.082 53.3741L283.345 53.6656L283.528 54.0164L283.633 54.4072L283.663 54.8088V56.6137ZM285.393 61.3419L285.317 61.1768L285.231 61.0246L285.13 60.881L285.012 60.7428L284.874 60.6068L284.717 60.474L284.537 60.3412L284.331 60.2084L284.099 60.0757L283.12 59.5651L283.986 58.9595L284.209 58.7608L284.384 58.5579L284.518 58.3388L284.624 58.0883L284.708 57.7936L284.779 57.4449L284.788 57.3769L284.793 57.337L284.8 57.297L284.804 57.2603L284.809 57.2247L284.814 57.1848L284.819 57.1545L284.82 57.1189L284.822 57.0768L284.824 57.0315L284.826 56.9851L284.827 56.9408L284.829 56.8965L284.83 56.8512L284.832 56.8102L284.799 50.9971L284.781 50.5297L284.729 50.1022L284.645 49.7017L284.529 49.3282L284.384 48.9849L284.212 48.6686L284.012 48.3804L283.786 48.1202L283.534 47.8881L283.256 47.6819L282.95 47.5049L282.617 47.3559L282.258 47.2372L281.87 47.1508L281.455 47.0968L281 47.0774H275.986V52.9229H277.662V66.0086H275.986V71.7807H281.704L282.158 71.7613L282.575 71.7062L282.967 71.6155L283.333 71.4914L283.672 71.3349L283.986 71.1481L284.274 70.9311L284.537 70.6839L284.773 70.4076L284.982 70.0999L285.164 69.7631L285.317 69.395L285.438 68.9967L285.528 68.567L285.584 68.1082L285.603 67.6084V62.7485L285.597 62.4516L285.579 62.1829L285.55 61.9411L285.508 61.7208L285.456 61.5222L285.393 61.3419Z" fill="#E21C2A"/>
<path fill-rule="evenodd" clip-rule="evenodd" d="M140.88 10.3571C133.448 13.8838 126.2 18.1079 119.333 24.8483C121.956 35.2795 124.999 45.5995 127.808 56.0027C133.552 53.4594 139.113 50.8395 144.888 48.2983L144.699 44.7694L147.665 43.6457L142.08 37.3101L145.795 33.5923L141.895 28.4074L142.695 28.0037L140.88 10.3571Z" fill="#E21C2A"/>
<path fill-rule="evenodd" clip-rule="evenodd" d="M142.08 3.90815C156.754 -0.419569 164.589 9.26247 175.92 6.50327L171.401 18.2159C163.222 19.7153 152.771 22.4713 142.832 27.9767L142.08 3.90815Z" fill="#E21C2A"/>
<path fill-rule="evenodd" clip-rule="evenodd" d="M140.796 31.8586C140.427 29.9295 139.888 28.1386 139.19 26.4492C138.928 25.8933 138.684 25.3525 138.469 24.8732C138.067 24.0711 137.723 23.4547 137.405 23.0607L137.346 23.0002C137.053 22.658 136.814 22.4713 136.602 22.4421C136.836 22.3622 136.895 22.1463 136.708 21.8527C136.602 21.6163 136.41 21.3691 136.12 21.1089C135.852 20.8919 135.582 20.7009 135.289 20.5746C134.999 20.4353 134.759 20.3813 134.568 20.4623C134.437 20.4882 134.382 20.5433 134.33 20.5746C134.225 20.757 134.117 20.9729 134.012 21.2104C133.9 21.477 133.823 21.8009 133.715 22.1172C133.528 22.7886 133.399 23.5929 133.338 24.531C133.231 25.5198 133.287 26.5356 133.423 27.5989C133.472 28.4582 133.635 29.3142 133.846 30.2221C133.9 30.4639 133.954 30.6766 134.012 30.8892C134.197 31.5855 134.382 32.2537 134.623 32.9521C134.944 33.833 135.289 34.6351 135.666 35.408C136.197 36.5372 136.761 37.4385 137.346 38.1348C137.428 38.2428 137.536 38.3507 137.618 38.4328C138.315 39.1852 138.928 39.5025 139.46 39.4497L139.675 39.3439C140.427 39.0751 140.879 38.2417 141.068 36.8275C141.223 35.4091 141.148 33.752 140.796 31.8586ZM138.898 35.9175C138.765 36.4799 138.602 36.8275 138.361 36.9063C137.988 36.5598 137.671 36.1313 137.346 35.6002C137.298 35.4663 137.238 35.3573 137.162 35.2191C136.733 34.2875 136.363 33.1616 136.091 31.8586C135.826 30.547 135.689 29.2311 135.614 27.9767C135.615 26.7213 135.638 25.7573 135.826 25.0135C135.879 25.1711 135.987 25.2758 136.066 25.3838L136.222 25.4906C136.25 25.4626 136.284 25.3039 136.303 24.953C136.284 24.6119 136.284 24.3658 136.303 24.2309C136.284 24.1002 136.334 24.0182 136.441 23.9944L136.498 23.9653C136.761 23.9944 137.053 24.2913 137.346 24.8483C137.405 24.9541 137.486 25.0599 137.536 25.1992C137.805 25.7314 138.067 26.5043 138.392 27.5168C138.602 28.6201 138.822 29.691 138.928 30.7586C139.033 31.7992 139.088 32.7935 139.113 33.7035C139.088 34.6081 139.033 35.3314 138.898 35.9175Z" fill="white"/>
<path fill-rule="evenodd" clip-rule="evenodd" d="M123.234 28.1645L122.216 29.7643L122.193 29.8453C122.059 29.8701 121.929 29.7633 121.767 29.4761C121.603 29.2073 121.474 28.9159 121.364 28.511C121.259 28.1645 121.236 27.8957 121.311 27.7673C121.475 27.4391 121.685 26.9598 121.875 26.3456C122.059 25.7313 122.193 25.3038 122.274 25.0912C122.405 24.8483 122.512 24.7403 122.698 24.6874C122.995 24.5795 123.368 24.7662 123.875 25.2758C124.12 25.5197 124.386 25.863 124.597 26.2409C124.841 26.6435 125.055 27.0656 125.182 27.5168C125.324 27.9767 125.458 28.4851 125.562 29.0454C125.667 29.5808 125.748 29.9835 125.799 30.1422L127.486 36.8286C127.994 39.101 128.718 41.0581 129.704 42.6849H129.735V43.6457C129.358 43.488 128.795 43.2214 127.994 42.7907C127.671 42.6536 127.383 42.3351 127.062 41.7749C126.601 41.0592 126.152 40.0336 125.694 38.8084C125.217 37.5486 124.866 36.5037 124.651 35.6746C124.415 34.5789 124.227 33.5653 124.035 32.5203C123.849 31.4548 123.696 30.5977 123.581 29.8453C123.448 29.1296 123.341 28.537 123.234 28.1645Z" fill="white"/>
<path fill-rule="evenodd" clip-rule="evenodd" d="M134.382 34.2087C134.274 33.6182 134.142 33.0547 134.012 32.4912C133.688 31.2077 133.287 30.0105 132.807 28.8306C132.538 28.2466 132.299 27.7079 132.055 27.2567C131.654 26.4287 131.308 25.835 130.986 25.4356C130.666 25.0362 130.395 24.8483 130.184 24.8224C130.426 24.7425 130.454 24.5309 130.288 24.2028C130.212 23.9944 129.998 23.7515 129.733 23.4881C129.462 23.2431 129.166 23.0833 128.876 22.9538C128.58 22.7886 128.338 22.7638 128.156 22.8135C128.048 22.8707 127.939 22.9203 127.886 22.9538C127.702 23.3208 127.486 23.8595 127.324 24.5029C127.11 25.1711 126.98 25.9732 126.921 26.9037C126.846 27.8709 126.873 28.9159 127.003 29.9835C127.083 30.8147 127.246 31.6913 127.459 32.6013C127.647 33.5146 127.914 34.4192 128.235 35.3011C128.528 36.209 128.876 37.0121 129.251 37.7656C129.412 38.0808 129.569 38.4036 129.733 38.6681C130.212 39.5274 130.692 40.2474 131.198 40.8098C131.899 41.559 132.512 41.8807 133.044 41.7997L133.257 41.7198C133.551 41.614 133.792 41.423 134.012 41.1337C134.33 40.704 134.545 40.0617 134.649 39.2046C134.838 37.7937 134.731 36.1313 134.382 34.2065V34.2087ZM132.482 38.2978C132.378 38.8581 132.191 39.1841 131.949 39.292C131.521 38.8581 131.093 38.3259 130.772 37.6037C130.347 36.7185 129.998 35.652 129.733 34.4472C129.704 34.3673 129.704 34.2864 129.675 34.2324C129.412 32.9003 129.251 31.6136 129.225 30.3538C129.166 29.1016 129.251 28.1062 129.412 27.3895C129.49 27.5514 129.569 27.6539 129.675 27.7317L129.734 27.79L129.812 27.8709C129.862 27.8407 129.892 27.682 129.862 27.3333C129.885 27.0332 129.888 26.8486 129.888 26.7115L129.928 26.4492C129.952 26.4093 129.986 26.3812 130.028 26.3726L130.103 26.3477C130.395 26.3477 130.751 26.7482 131.147 27.5168C131.388 28.0836 131.684 28.8597 131.949 29.8702C132.216 30.9712 132.378 32.041 132.512 33.1335C132.617 34.1774 132.671 35.1673 132.671 36.0773C132.671 36.9862 132.617 37.7116 132.482 38.2978Z" fill="white"/>
<path fill-rule="evenodd" clip-rule="evenodd" d="M155.896 14.2876C155.896 14.2325 155.844 14.0501 155.688 13.6917C155.547 13.3516 155.391 13.0558 155.256 12.7892C154.826 12.0659 154.484 11.7443 154.105 11.7961L154.057 11.7972C154 11.7443 153.975 11.6622 153.897 11.5553L153.871 11.51C153.812 11.3751 153.704 11.2952 153.574 11.2153C153.388 11.13 153.3 11.1052 153.15 11.1052C152.959 11.13 152.746 11.265 152.536 11.4517C152.342 11.6385 152.212 11.9105 152.047 12.1966C151.757 13.4067 151.857 14.4193 152.37 15.326C152.664 15.8626 153.172 16.3721 153.897 16.8503L153.948 16.8838C154.213 17.1169 154.534 17.2011 154.801 17.1482C155.067 17.1169 155.313 16.9561 155.522 16.6657C155.736 16.3472 155.875 16.0029 155.926 15.57C156.005 15.1382 156.005 14.7096 155.895 14.2854L155.896 14.2876ZM153.871 15.7319C153.704 15.57 153.598 15.4621 153.574 15.3843C153.442 15.1684 153.34 14.9266 153.251 14.6049C153.199 14.3081 153.199 13.9907 153.199 13.669C153.223 13.3516 153.3 13.0558 153.387 12.7892L153.68 12.9231C153.731 12.9231 153.812 12.8659 153.871 12.7633L153.897 12.7396L154.08 12.6014L154.295 12.6554L154.349 12.813C154.484 13.003 154.561 13.3506 154.59 13.8288C154.616 14.3081 154.59 14.7431 154.457 15.1382C154.351 15.5117 154.192 15.7147 153.957 15.773L153.897 15.7578L153.871 15.7319Z" fill="white"/>
<path fill-rule="evenodd" clip-rule="evenodd" d="M151.009 5.29967C150.768 5.67858 150.55 6.12872 150.394 6.61342C150.203 7.09596 150.047 7.63139 149.935 8.18302C149.805 8.77674 149.697 9.39421 149.645 10.0624C149.538 10.7285 149.462 11.4269 149.402 12.1729C149.354 12.7094 149.292 13.2426 149.272 13.8018C149.191 14.3653 149.165 14.85 149.105 15.2473C149.105 15.6219 149.165 16.0029 149.191 16.3462C149.273 16.6927 149.354 16.9885 149.51 17.2249C149.646 17.4656 149.886 17.7075 150.203 17.9762C150.259 18.0324 150.311 18.0561 150.443 18.1079L150.768 18.1403C150.873 18.1403 150.981 18.0302 150.981 17.8424C151.009 17.6837 150.929 17.4138 150.74 17.0436C150.768 15.9155 150.796 15.1382 150.821 14.6309C150.821 14.1289 150.873 13.5384 150.929 12.8659C150.981 12.2279 151.031 11.5554 151.115 10.8893C151.198 10.219 151.304 9.63278 151.435 9.1524C151.78 7.57093 151.731 6.42343 151.304 5.70448C151.198 5.57063 151.144 5.4346 151.009 5.29858V5.29967Z" fill="white"/>
<path fill-rule="evenodd" clip-rule="evenodd" d="M148.492 9.15236C148.465 8.96992 148.44 8.80477 148.363 8.64608C148.335 8.51114 148.307 8.28985 148.227 8.10633C148.173 7.92389 148.094 7.73714 148.043 7.60004C147.988 7.44028 147.932 7.30641 147.825 7.1704C147.507 6.61445 147.107 6.29168 146.603 6.20964L146.496 6.02289L146.458 5.97648C146.354 5.80915 146.248 5.70444 146.115 5.6224C146.008 5.54359 145.882 5.51445 145.742 5.54252C145.313 5.59325 144.91 5.99483 144.62 6.77207C144.435 7.14449 144.402 7.6551 144.512 8.2445C144.566 8.85982 144.782 9.42008 145.075 9.95767C145.476 10.5957 145.926 11.0771 146.496 11.3751C146.707 11.483 146.916 11.5553 147.132 11.6158C147.347 11.6622 147.481 11.6903 147.56 11.6622C147.933 11.6179 148.227 11.3168 148.413 10.7856C148.572 10.2535 148.6 9.70938 148.492 9.15236ZM147.108 9.42116C147 9.84756 146.784 10.0624 146.517 10.1131L146.496 10.0883C146.329 10.0062 146.172 9.87887 146.093 9.68672C145.906 9.36826 145.796 8.99044 145.796 8.51006C145.796 8.00378 145.882 7.63135 145.987 7.28267C146.172 7.33017 146.279 7.35931 146.279 7.35931C146.354 7.33017 146.433 7.28267 146.496 7.1704L146.612 6.92428L146.624 6.90808C146.707 6.88002 146.784 6.93291 146.943 7.01495L146.974 7.06137C147.025 7.22653 147.107 7.5234 147.132 8.02969C147.212 8.51114 147.158 8.99044 147.107 9.42008L147.108 9.42116Z" fill="white"/>
<path fill-rule="evenodd" clip-rule="evenodd" d="M177.475 5.86635L176.427 5.70551L171.511 18.5926C167.849 20.1168 163.81 22.1463 160.101 24.3118C157.451 25.8641 154.937 27.438 152.855 28.9914L151.597 25.4906C149.213 26.1599 147.347 26.9598 144.835 28.3502L147.24 32.2299C148.869 31.2076 149.59 30.5977 151.198 30.1637C147.933 32.6563 146.223 34.5293 144.546 36.7994C147.507 40.1437 148.761 41.1596 151.144 44.6874C145.372 49.8495 139.7 62.552 139.034 68.6782L143.124 68.8628C139.514 69.7156 136.25 69.3971 135.904 72.0948L144.436 72.2848C145.818 67.1226 150.364 58.0602 155.152 51.268C155.631 52.1014 156.056 52.9509 156.459 53.7778L148.278 72.1768H150.981L157.663 55.6831C158.066 56.9634 158.997 58.8882 160.101 61.0008C162.183 65.0629 164.803 69.8764 164.935 72.2308L174.102 72.2038C172.983 69.5828 170.601 68.8887 169.105 68.648C168.73 62.389 165.416 53.1874 162.876 47.4973L160.101 48.3523L157.369 49.1802C158.386 48.3264 159.268 47.548 160.101 46.8561C162.716 44.6409 164.803 43.0346 168.915 40.6522C168.276 39.1517 167.236 37.5788 166.139 36.318L164.13 38.8095L171.186 22.0707C172.307 21.64 173.489 21.504 174.741 21.1316L174.988 17.5509C174.078 17.8715 173.811 17.8941 172.983 18.2137L177.475 5.86635ZM164.959 33.9658C163.868 32.7945 162.365 30.7326 161.267 29.6596C160.869 30.0375 160.469 30.4077 160.101 30.7845C157.072 33.7045 154.694 36.6105 152.876 40.1718L150.873 37.9793C154.001 34.3403 156.966 31.267 160.101 28.7237C163.008 26.3186 166.032 24.3658 169.319 22.8383L164.959 33.9658Z" fill="#282724"/>
</svg>
