<svg width="20" height="17" viewBox="0 0 20 17" fill="none" xmlns="http://www.w3.org/2000/svg">
<path fill-rule="evenodd" clip-rule="evenodd" d="M3.33301 0.794434H16.6663C18.0382 0.794434 19.1581 1.96903 19.1663 3.41241C19.1664 3.42151 19.1665 3.43061 19.1663 3.43971V13.9641C19.1663 15.4147 18.0432 16.598 16.6663 16.598H3.33301C1.9561 16.598 0.833008 15.4147 0.833008 13.9641V3.4385M2.58849 3.03674L9.99968 8.50249L17.4109 3.03675C17.273 2.74962 16.9896 2.55039 16.6663 2.55039H3.33301C3.00971 2.55039 2.72631 2.74962 2.58849 3.03674ZM3.33301 0.794434C1.96069 0.794434 0.840489 1.96983 0.833045 3.41388L3.33301 0.794434ZM2.49967 5.11465V13.9641C2.49967 14.445 2.87658 14.8421 3.33301 14.8421H16.6663C17.1228 14.8421 17.4997 14.445 17.4997 13.9641V5.11466L10.4776 10.2935C10.1906 10.5051 9.80873 10.5051 9.5218 10.2935L2.49967 5.11465Z" fill="white"/>
</svg>
