<svg width="16" height="19" viewBox="0 0 16 19" fill="none" xmlns="http://www.w3.org/2000/svg">
<path fill-rule="evenodd" clip-rule="evenodd" d="M2.69819 13.6311L7.41466 18.3476C7.7403 18.6732 8.26834 18.673 8.5937 18.3471L13.302 13.6304C15.4473 11.4865 16.0899 8.26026 14.9293 5.45709C13.7688 2.65393 11.0337 0.826084 7.99975 0.826084C4.96584 0.826084 2.23076 2.65393 1.07019 5.45709C-0.0903835 8.26026 0.552185 11.4865 2.69819 13.6311ZM8 12.5C10.3012 12.5 12.1667 10.6345 12.1667 8.33334C12.1667 6.03216 10.3012 4.16667 8 4.16667C5.69881 4.16667 3.83333 6.03216 3.83333 8.33334C3.83333 10.6345 5.69881 12.5 8 12.5Z" fill="white"/>
</svg>
