<svg width="43" height="42" viewBox="0 0 43 42" fill="none" xmlns="http://www.w3.org/2000/svg">
<path fill-rule="evenodd" clip-rule="evenodd" d="M16.8809 20.2563C16.8809 19.2594 15.5082 18.4516 13.8154 18.4516C12.1223 18.4516 10.75 19.2594 10.75 20.2563C10.75 21.2528 12.1223 22.061 13.8154 22.061C15.5082 22.061 16.8809 21.2528 16.8809 20.2563Z" fill="white"/>
<path d="M35.3732 9.82388C34.9503 9.63674 34.4529 9.82003 34.2617 10.2328C34.0704 10.6455 34.2578 11.1316 34.6803 11.3184C38.9002 13.1846 41.3203 15.4087 41.3203 17.4204C41.3203 22.2346 34.8063 23.4302 32.0059 23.7208C27.767 24.1608 24.841 25.5614 22.2591 26.797C19.5651 28.0864 17.2381 29.1999 13.8574 29.1999C7.14261 29.1999 1.67969 24.2957 1.67969 18.2673C1.67969 15.2764 2.8184 12.8786 5.06432 11.1402C10.4193 6.99572 20.584 7.41998 27.6614 9.04298C28.1128 9.14648 28.5649 8.87283 28.6712 8.43191C28.7771 7.99067 28.4969 7.54911 28.0455 7.44561C23.6413 6.43592 19.0028 6.03794 14.984 6.32569C10.3681 6.65574 6.57703 7.87595 4.02141 9.85432C1.35294 11.9195 0 14.7502 0 18.2673V23.1895C0 30.1224 6.21648 35.7627 13.8574 35.7627C17.6275 35.7627 20.2363 34.514 22.9983 33.1922C25.5752 31.9589 28.2394 30.6835 32.1834 30.2743C35.3184 29.9491 37.9491 29.1317 39.7909 27.9111C41.8905 26.5198 43 24.5943 43 22.3423V17.4204C43 14.6967 40.2915 11.999 35.3732 9.82388ZM41.3203 22.3423C41.3203 27.1565 34.8063 28.3524 32.0059 28.643C27.767 29.0826 24.841 30.4832 22.2591 31.7188C19.5651 33.0083 17.2381 34.1221 13.8574 34.1221C7.59107 34.1221 2.41586 29.8507 1.75219 24.3809C4.12376 28.2312 8.66056 30.8405 13.8574 30.8405C17.6275 30.8405 20.2363 29.5921 22.9983 28.27C25.5749 27.037 28.2394 25.7616 32.1831 25.3525C35.3184 25.0269 37.9491 24.2098 39.7909 22.9892C40.3794 22.5993 40.8899 22.1673 41.3203 21.6979V22.3423Z" fill="white"/>
<path d="M12.8516 27.5148C13.1865 27.5443 13.5251 27.5593 13.8574 27.5593C15.6569 27.5593 17.2617 27.2065 19.2236 26.3798C20.0979 26.0113 20.958 25.6002 21.79 25.2028C22.6535 24.7904 23.5458 24.3636 24.4381 23.9938C26.8976 22.9729 29.3151 22.3503 31.8284 22.0895C32.8412 21.9844 38.1886 20.9064 39.1571 18.3202C39.4103 17.6444 39.4694 16.5915 38.3139 15.4126C37.3783 14.4577 36.3918 13.9719 35.3479 13.4576C35.2433 13.406 35.137 13.3538 35.029 13.3C31.6024 11.5975 27.1391 10.3558 22.4609 9.80402C20.6349 9.58869 17.0177 9.30254 13.3066 9.80498C9.34818 10.3408 6.5183 11.6158 4.89504 13.5944C3.86164 14.8538 3.35938 16.3822 3.35938 18.2673C3.35938 20.3575 4.10999 22.316 5.52952 23.9307C5.83167 24.2742 6.36214 24.3139 6.71383 24.0185C7.06584 23.7234 7.10587 23.2052 6.80372 22.8617C5.64926 21.5486 5.03906 19.9602 5.03906 18.2673C5.03906 16.77 5.4206 15.577 6.20566 14.6202C7.55138 12.9799 10.0181 11.9064 13.5369 11.4299C17.1919 10.9352 20.8544 11.2671 22.2591 11.4328C26.7474 11.9622 31.0116 13.1446 34.2673 14.7621C34.3772 14.8169 34.4851 14.8701 34.5914 14.9223C35.5818 15.4103 36.3643 15.7955 37.1004 16.5469C37.7749 17.2352 37.6332 17.614 37.5797 17.7566C37.0834 19.0819 33.4074 20.2755 31.651 20.4578C28.97 20.7363 26.396 21.399 23.7814 22.4836C22.848 22.8707 21.935 23.3071 21.0519 23.7288C20.2376 24.1182 19.3955 24.5203 18.5583 24.8734C16.8195 25.6063 15.4138 25.9187 13.8574 25.9187C13.5753 25.9187 13.2879 25.9059 13.0031 25.8809C12.5409 25.8386 12.1328 26.1725 12.0908 26.6236C12.0491 27.0748 12.3897 27.4738 12.8516 27.5148Z" fill="white"/>
<path d="M13.8154 22.8803C16.0053 22.8803 17.7207 21.7274 17.7207 20.2553C17.7207 18.7832 16.0053 17.6303 13.8154 17.6303C11.6253 17.6303 9.91016 18.7832 9.91016 20.2553C9.91016 21.7274 11.6253 22.8803 13.8154 22.8803ZM13.8154 19.2709C15.1533 19.2709 16.041 19.8634 16.041 20.2553C16.041 20.6472 15.1533 21.2397 13.8154 21.2397C12.4773 21.2397 11.5898 20.6472 11.5898 20.2553C11.5898 19.8634 12.4773 19.2709 13.8154 19.2709Z" fill="white"/>
<path d="M9.55487 24.9288L9.55421 24.9285C9.12773 24.75 8.63432 24.9433 8.45192 25.3595C8.26919 25.7761 8.46668 26.2583 8.89316 26.4368C9.0011 26.482 9.11329 26.5035 9.22352 26.5035C9.54929 26.5035 9.85931 26.317 9.99578 26.0061C10.1785 25.5896 9.98135 25.1073 9.55487 24.9288Z" fill="white"/>
<path d="M31.2672 10.0277C31.3443 10.0491 31.4221 10.0594 31.4985 10.0594C31.864 10.0594 32.2002 9.82452 32.3056 9.46435C32.4332 9.02856 32.1747 8.57451 31.7288 8.45018L31.7282 8.44986C31.282 8.32585 30.8178 8.57803 30.6902 9.0135C30.5629 9.44897 30.8214 9.90303 31.2672 10.0277Z" fill="white"/>
</svg>
