<svg width="18" height="14" viewBox="0 0 18 14" fill="none" xmlns="http://www.w3.org/2000/svg">
<path fill-rule="evenodd" clip-rule="evenodd" d="M1.63333 2H16.3667C16.9926 2 17.5 1.55228 17.5 1C17.5 0.447715 16.9926 0 16.3667 0H1.63333C1.00741 0 0.5 0.447715 0.5 1C0.5 1.55228 1.00741 2 1.63333 2ZM1.63333 8H16.3667C16.9926 8 17.5 7.55228 17.5 7C17.5 6.44772 16.9926 6 16.3667 6H1.63333C1.00741 6 0.5 6.44772 0.5 7C0.5 7.55228 1.00741 8 1.63333 8ZM16.3667 14H1.63333C1.00741 14 0.5 13.5523 0.5 13C0.5 12.4477 1.00741 12 1.63333 12H16.3667C16.9926 12 17.5 12.4477 17.5 13C17.5 13.5523 16.9926 14 16.3667 14Z" fill="white"/>
</svg>
