<svg width="30" height="32" viewBox="0 0 30 32" fill="none" xmlns="http://www.w3.org/2000/svg">
<g opacity="0.7">
<path d="M0 15.8036C0 7.0755 6.71573 0 15 0C23.2843 0 30 7.0755 30 15.8036C30 24.5316 23.2843 31.6071 15 31.6071C6.71573 31.6071 0 24.5316 0 15.8036Z" fill="#F68634"/>
<path d="M16.6225 19.3861L18.8641 21.6661C19.3234 22.1321 19.3234 22.8891 18.8641 23.3556C18.4054 23.8222 17.6619 23.8222 17.2036 23.3556L14.9996 21.1151L12.7975 23.3556C12.5679 23.5886 12.267 23.7053 11.9662 23.7053C11.6658 23.7053 11.3654 23.5886 11.1358 23.3556C10.677 22.8891 10.677 22.1326 11.1353 21.6661L13.3772 19.3861C12.5609 19.197 11.7737 18.868 11.0487 18.4054C10.4999 18.0535 10.3351 17.3164 10.6808 16.7579C11.0256 16.1986 11.7507 16.0302 12.3004 16.3821C13.942 17.4323 16.0567 17.4325 17.6993 16.3821C18.249 16.0302 18.9738 16.1986 19.3193 16.7579C19.665 17.3159 19.4997 18.0535 18.951 18.4054C18.2259 18.8685 17.4387 19.197 16.6225 19.3861Z" fill="white"/>
<path fill-rule="evenodd" clip-rule="evenodd" d="M10.9795 11.9802C10.9795 14.2285 12.778 16.0574 14.9894 16.0574C17.2014 16.0574 18.9994 14.2285 18.9994 11.9802C18.9994 9.73119 17.2014 7.90186 14.9894 7.90186C12.778 7.90186 10.9795 9.73119 10.9795 11.9802ZM16.6498 11.9802C16.6498 11.0491 15.905 10.2919 14.9894 10.2919C14.0746 10.2919 13.3291 11.0491 13.3291 11.9802C13.3291 12.9106 14.0746 13.6683 14.9894 13.6683C15.905 13.6683 16.6498 12.9106 16.6498 11.9802Z" fill="white"/>
</g>
</svg>
