<svg width="20" height="21" viewBox="0 0 20 21" fill="none" xmlns="http://www.w3.org/2000/svg">
<path fill-rule="evenodd" clip-rule="evenodd" d="M18.2632 19.491C18.7819 18.9897 19.076 18.2811 19.0731 17.5395L19.0731 14.9189C19.0988 13.587 18.1761 12.4437 16.9229 12.2575C16.1777 12.1539 15.4533 11.9637 14.7561 11.6897C13.8444 11.3286 12.8145 11.56 12.1205 12.283L11.5196 12.9161C9.98241 11.8837 8.67801 10.5094 7.69813 8.88988L8.2957 8.26029C8.98526 7.52564 9.20491 6.44055 8.86149 5.47801C8.60204 4.74547 8.42159 3.98229 8.32429 3.20502C8.14762 1.88784 7.07808 0.918758 5.82325 0.93177L3.33145 0.931728C2.62891 0.932424 1.95974 1.24383 1.48662 1.78989C1.0135 2.33594 0.780004 3.06636 0.843163 3.80271C1.1318 6.66736 2.05253 9.4069 3.53205 11.8131C4.87316 14.0368 6.66778 15.9275 8.78451 17.3446C11.0516 18.8936 13.6392 19.8634 16.3331 20.1718C17.0492 20.2402 17.7445 19.9924 18.2632 19.491ZM11.5196 12.9161C11.6967 13.035 11.8769 13.1494 12.06 13.2591L11.0589 13.4015L11.5196 12.9161ZM17.4064 14.9091C17.4172 14.4417 17.109 14.0585 16.6975 13.9973C15.8351 13.8774 14.9884 13.6552 14.1716 13.3341C13.867 13.2135 13.5237 13.2906 13.2957 13.5281L12.2374 14.6432C11.9721 14.9227 11.5623 14.9809 11.2362 14.7856C9.01952 13.4576 7.18414 11.5239 5.9237 9.18848C5.73828 8.8449 5.7936 8.41315 6.05886 8.13367L7.11391 7.02213C7.34266 6.7784 7.41588 6.41671 7.3007 6.09388C6.9966 5.23528 6.78568 4.34319 6.67298 3.4427C6.61444 3.00633 6.25793 2.6833 5.83145 2.68768L3.33223 2.68768C3.09832 2.68791 2.87526 2.79172 2.71755 2.97373C2.55985 3.15575 2.48202 3.39922 2.50179 3.63098C2.7615 6.20767 3.59366 8.68367 4.93479 10.8649C6.14863 12.8774 7.76816 14.5837 9.68487 15.867C11.7397 17.2709 14.0784 18.1474 16.4981 18.4246C16.7318 18.4468 16.9636 18.3643 17.1365 18.1971C17.3094 18.03 17.4074 17.7938 17.4064 17.543V14.9091Z" fill="white"/>
</svg>
