<svg width="58" height="58" viewBox="0 0 58 58" fill="none" xmlns="http://www.w3.org/2000/svg">
<g clip-path="url(#clip0)">
<path d="M32.0026 9.60233C32.0712 9.65989 32.1503 9.70686 32.239 9.74002C32.6528 9.89518 33.111 9.68724 33.2622 9.27557C33.4131 8.86395 33.1999 8.40443 32.7859 8.2495L32.7854 8.2491C32.3711 8.09397 31.9134 8.30188 31.7624 8.71374C31.6436 9.03745 31.7503 9.3906 32.0026 9.60233Z" fill="white"/>
<path d="M49.3477 25.8254C49.3263 25.8074 49.3036 25.7916 49.2819 25.7746C49.3562 25.5571 49.4147 25.3325 49.4542 25.1012C49.6482 23.9655 49.3867 22.8178 48.7181 21.8698C47.7283 20.4643 46.6149 19.0815 45.4087 17.7561C45.5459 16.9448 45.2589 16.0788 44.5789 15.5082C44.0196 15.0389 43.3098 14.8663 42.6438 14.9731C42.2021 14.5676 41.7539 14.1729 41.3061 13.7972C40.8583 13.4214 40.3917 13.0485 39.9158 12.6839C39.9053 12.0096 39.612 11.3406 39.0527 10.8712C38.3727 10.3007 37.4708 10.1685 36.6954 10.4443C36.4984 10.3195 36.2994 10.1953 36.101 10.0741C35.7235 9.84353 35.2333 9.96022 35.006 10.3348C34.8003 10.6745 34.8813 11.1093 35.1795 11.3595C35.2102 11.3852 35.2436 11.4092 35.2788 11.4306C35.3151 11.453 35.3513 11.4757 35.3876 11.4981L34.4148 12.6575C34.2659 12.835 34.2029 13.0693 34.2425 13.2994C34.2748 13.4883 34.3738 13.6582 34.5191 13.7802C34.5508 13.8067 34.5844 13.8309 34.6198 13.8526C34.831 13.9804 35.043 14.1126 35.2501 14.2447C35.9065 14.6641 36.5703 15.1253 37.2227 15.6148C37.5629 15.8704 38.0412 15.8181 38.312 15.4954L39.3529 14.2549C39.6709 14.5047 39.9835 14.7577 40.2867 15.0121C40.5898 15.2665 40.8932 15.5303 41.1948 15.8003L40.1538 17.0409C39.8832 17.3633 39.9144 17.8435 40.2251 18.1342C40.8205 18.6916 41.39 19.2653 41.917 19.8389C42.0833 20.0197 42.2501 20.2057 42.4126 20.3915C42.4403 20.4228 42.4697 20.4515 42.5014 20.4781C42.6467 20.6 42.8317 20.6679 43.0232 20.6673C43.2564 20.666 43.4762 20.5633 43.6251 20.3859L44.5979 19.2265C45.6187 20.3773 46.5649 21.5688 47.4158 22.7769C47.8379 23.3757 48.0031 24.1003 47.8807 24.8172C47.8272 25.1298 47.7219 25.4248 47.5707 25.6921C47.5674 25.6986 47.5631 25.7047 47.5597 25.7112C47.3651 26.0493 47.0969 26.343 46.7675 26.5729C46.1718 26.9881 45.4478 27.1452 44.7283 27.0153C44.0083 26.8855 43.3796 26.4842 42.9576 25.8858C42.2634 24.9002 41.5209 23.9476 40.7303 23.0364C39.9712 22.1612 39.1702 21.3087 38.3121 20.5285C37.4109 19.7092 36.4968 18.9115 35.5306 18.1691C34.6123 17.4636 33.6621 16.7997 32.6763 16.1921C31.6582 15.5642 30.6062 14.9904 29.5304 14.4687C29.3922 14.4016 29.2535 14.3354 29.1146 14.2701C27.7455 13.626 27.1454 11.9967 27.7761 10.6372C28.0506 10.0451 28.5309 9.57348 29.1276 9.30953C29.5291 9.13209 29.7068 8.6617 29.5248 8.25949C29.3427 7.85685 28.8695 7.67452 28.4682 7.85173C28.351 7.90377 28.2366 7.96066 28.1256 8.02236C28.1047 8.00397 28.0851 7.98436 28.064 7.96665C26.8219 6.92433 24.9725 7.0761 23.9414 8.305C22.9104 9.53366 23.082 11.3813 24.3242 12.4236C24.843 12.8589 25.4888 13.0971 26.1479 13.1148C26.1639 13.1626 26.1794 13.2108 26.1971 13.2584C26.5975 14.3452 27.3963 15.2161 28.4471 15.71C29.2646 16.0939 30.0587 16.5051 30.8225 16.9386L27.9084 20.4115C26.714 21.835 26.9129 23.9755 28.3517 25.1829L28.5053 25.3117L22.6607 32.2769C22.004 32.2948 21.36 32.5801 20.9082 33.1185L14.7917 40.4079C13.9485 41.4128 14.0888 42.9236 15.1046 43.7759L16.3326 44.8064C17.3484 45.6587 18.8606 45.5346 19.7038 44.5297L20.4682 43.6187C20.7497 43.2832 20.703 42.7807 20.3639 42.4961C20.0247 42.2115 19.5217 42.2528 19.2402 42.5883L18.4758 43.4992C18.1947 43.8343 17.6907 43.8756 17.3521 43.5915L16.124 42.561C15.7854 42.2768 15.7386 41.7734 16.0197 41.4383L22.1362 34.1489C22.4172 33.8141 22.9213 33.7725 23.26 34.0567L24.488 35.0872C24.8267 35.3713 24.8733 35.875 24.5923 36.2098L23.8276 37.1213C23.546 37.4568 23.5927 37.9593 23.9319 38.2439C24.271 38.5285 24.7741 38.4872 25.0556 38.1517L25.8204 37.2403C26.2721 36.7019 26.4412 36.0181 26.3448 35.3683L32.1894 28.403L32.3429 28.5318C33.7817 29.7392 35.9243 29.5633 37.1187 28.1399L40.033 24.6667C40.5926 25.3437 41.1355 26.0548 41.6557 26.7934C41.8784 27.1092 42.1374 27.3904 42.4259 27.6325C43.0037 28.1173 43.7003 28.4459 44.4606 28.5828C44.5105 28.592 44.5604 28.5987 44.6105 28.6063C44.7424 29.2523 45.0891 29.8469 45.6079 30.2823C46.8501 31.3246 48.6994 31.1728 49.7304 29.9442C50.7615 28.7153 50.5899 26.8677 49.3477 25.8254ZM37.561 13.896C37.1182 13.5786 36.6731 13.2751 36.2296 12.9887L36.9096 12.1783C36.9621 12.1157 37.0225 12.0632 37.0881 12.0216C37.0889 12.0211 37.0895 12.0208 37.0901 12.0201C37.3752 11.8396 37.7587 11.8557 38.0333 12.0861C38.264 12.2797 38.3592 12.5755 38.3073 12.8502C38.3058 12.8558 38.305 12.8612 38.3037 12.8666C38.2779 12.9889 38.2232 13.1068 38.1376 13.2088L37.561 13.896ZM42.9838 18.6561C42.625 18.2693 42.2486 17.8835 41.8591 17.5025L42.4357 16.8154C42.52 16.715 42.6244 16.6417 42.7381 16.5948C42.7462 16.5915 42.7544 16.5886 42.7622 16.5851C43.0232 16.4879 43.3294 16.5301 43.5595 16.7231C43.8339 16.9534 43.9164 17.3275 43.7883 17.6394C43.788 17.6407 43.7875 17.6419 43.7872 17.6432C43.7571 17.7151 43.7161 17.7834 43.6638 17.8458L42.9838 18.6561ZM25.1696 9.33521C25.5957 8.82742 26.3282 8.72555 26.8824 9.06605C26.663 9.33682 26.4754 9.63436 26.3266 9.95545C26.0983 10.4472 25.9689 10.9682 25.9364 11.495C25.7213 11.4508 25.517 11.3537 25.3439 11.2084C24.7788 10.7343 24.7007 9.89402 25.1696 9.33521ZM36.6782 21.1829L35.6009 22.4669L33.7588 20.9212L34.8362 19.6372C35.1489 19.8827 35.4605 20.1348 35.7702 20.3946C36.0798 20.6545 36.3825 20.9177 36.6782 21.1829ZM35.8907 27.1094C35.2583 27.863 34.1241 27.9561 33.3623 27.3169L32.5948 26.6729C32.2556 26.3883 31.7526 26.4296 31.471 26.7651L25.5074 33.8723L24.2794 32.8418L30.243 25.7347C30.5245 25.3991 30.4778 24.8966 30.1387 24.612L29.3712 23.968C28.6094 23.3288 28.5041 22.1956 29.1365 21.4419L32.2141 17.7742C32.6672 18.0627 33.1129 18.3635 33.5508 18.6751L32.0211 20.4982C31.7395 20.8337 31.7862 21.3363 32.1254 21.6209L35.1955 24.197C35.5346 24.4816 36.0377 24.4403 36.3192 24.1048L37.8489 22.2817C38.2318 22.6588 38.6055 23.0455 38.9683 23.4417L35.8907 27.1094ZM46.6273 29.0674C46.4541 28.9221 46.3231 28.7377 46.2418 28.5336C46.7553 28.4102 47.246 28.1923 47.6906 27.882C47.9824 27.6784 48.2439 27.4433 48.4715 27.1823C48.9015 27.6688 48.9278 28.4066 48.5023 28.9137C48.0334 29.4725 47.1924 29.5415 46.6273 29.0674Z" fill="white"/>
<path d="M22.658 39.7626C22.3188 39.478 21.8156 39.5195 21.534 39.855C21.2525 40.1905 21.2992 40.6931 21.6383 40.9777C21.9775 41.2623 22.4805 41.221 22.7621 40.8855L22.7625 40.885C23.044 40.5495 22.9971 40.0471 22.658 39.7626Z" fill="white"/>
</g>
<defs>
<clipPath id="clip0">
<rect width="41.0391" height="40.6" fill="white" transform="translate(26.0972) rotate(40)"/>
</clipPath>
</defs>
</svg>
