<svg width="30" height="32" viewBox="0 0 30 32" fill="none" xmlns="http://www.w3.org/2000/svg">
<g opacity="0.7">
<path d="M0 15.8036C0 7.0755 6.71573 0 15 0C23.2843 0 30 7.0755 30 15.8036C30 24.5316 23.2843 31.6071 15 31.6071C6.71573 31.6071 0 24.5316 0 15.8036Z" fill="#4C6C91"/>
<path d="M15.7847 20.9899C15.7847 20.9899 16.0734 20.9567 16.2213 20.7924C16.3567 20.6419 16.352 20.3578 16.352 20.3578C16.352 20.3578 16.334 19.0314 16.9296 18.8355C17.5165 18.6429 18.2701 20.1183 19.0699 20.6856C19.674 21.1145 20.1326 21.0207 20.1326 21.0207L22.2697 20.9899C22.2697 20.9899 23.3872 20.9187 22.8574 20.0098C22.8136 19.9354 22.5483 19.3373 21.2689 18.1088C19.9283 16.8228 20.1083 17.0308 21.722 14.806C22.7049 13.4512 23.0977 12.6241 22.9748 12.2704C22.8582 11.9321 22.1351 12.0219 22.1351 12.0219L19.7296 12.0373C19.7296 12.0373 19.5511 12.0122 19.4189 12.094C19.2898 12.1741 19.206 12.361 19.206 12.361C19.206 12.361 18.8257 13.4091 18.3178 14.301C17.2465 16.1818 16.8184 16.2813 16.6431 16.1648C16.2354 15.8921 16.3372 15.0706 16.3372 14.4871C16.3372 12.6637 16.6048 11.9038 15.8168 11.7071C15.5554 11.6416 15.3629 11.5987 14.6938 11.5914C13.8353 11.5825 13.1091 11.5946 12.6975 11.8026C12.4236 11.941 12.2123 12.2502 12.3414 12.268C12.5003 12.2898 12.8602 12.3683 13.0512 12.637C13.2977 12.9842 13.2891 13.7628 13.2891 13.7628C13.2891 13.7628 13.4307 15.909 12.9581 16.1753C12.6341 16.3582 12.1896 15.9851 11.2341 14.2783C10.745 13.4042 10.3756 12.4379 10.3756 12.4379C10.3756 12.4379 10.3044 12.2574 10.1768 12.1603C10.0227 12.043 9.80747 12.0066 9.80747 12.0066L7.52161 12.0219C7.52161 12.0219 7.17806 12.0316 7.05207 12.1862C6.94016 12.323 7.04346 12.6071 7.04346 12.6071C7.04346 12.6071 8.83318 16.9377 10.86 19.1204C12.7186 21.121 14.8284 20.9899 14.8284 20.9899H15.7847Z" fill="white"/>
</g>
</svg>
