<svg width="29" height="28" viewBox="0 0 29 28" fill="none" xmlns="http://www.w3.org/2000/svg">
<path d="M0.199554 14C0.199554 6.26801 6.46757 0 14.1996 0C21.9315 0 28.1996 6.26801 28.1996 14C28.1996 21.732 21.9315 28 14.1996 28C6.46757 28 0.199554 21.732 0.199554 14Z" fill="#4C6C91"/>
<path d="M14.9319 18.5944C14.9319 18.5944 15.2014 18.565 15.3395 18.4194C15.4658 18.2861 15.4614 18.0344 15.4614 18.0344C15.4614 18.0344 15.4446 16.8594 16.0005 16.6859C16.5483 16.5152 17.2516 17.8222 17.9981 18.3248C18.562 18.7048 18.99 18.6216 18.99 18.6216L20.9847 18.5944C20.9847 18.5944 22.0277 18.5313 21.5332 17.7262C21.4923 17.6602 21.2447 17.1304 20.0505 16.042C18.7993 14.9028 18.9673 15.0871 20.4734 13.1162C21.3908 11.916 21.7574 11.1833 21.6427 10.87C21.5339 10.5703 20.859 10.6499 20.859 10.6499L18.6138 10.6635C18.6138 10.6635 18.4473 10.6413 18.3238 10.7137C18.2033 10.7847 18.1252 10.9503 18.1252 10.9503C18.1252 10.9503 17.7702 11.8787 17.2962 12.6688C16.2963 14.335 15.8968 14.4232 15.7332 14.3199C15.3526 14.0783 15.4476 13.3506 15.4476 12.8337C15.4476 11.2184 15.6974 10.5452 14.9619 10.371C14.7179 10.3129 14.5382 10.2749 13.9138 10.2685C13.1125 10.2606 12.4347 10.2713 12.0505 10.4556C11.7949 10.5782 11.5977 10.8521 11.7182 10.8678C11.8665 10.8872 12.2024 10.9567 12.3807 11.1948C12.6107 11.5023 12.6027 12.192 12.6027 12.192C12.6027 12.192 12.7349 14.0934 12.2937 14.3293C11.9914 14.4913 11.5765 14.1608 10.6847 12.6487C10.2282 11.8744 9.88346 11.0184 9.88346 11.0184C9.88346 11.0184 9.81699 10.8585 9.69794 10.7725C9.55405 10.6685 9.3532 10.6363 9.3532 10.6363L7.21973 10.6499C7.21973 10.6499 6.89909 10.6585 6.78149 10.7954C6.67705 10.9166 6.77346 11.1682 6.77346 11.1682C6.77346 11.1682 8.44386 15.0046 10.3356 16.9382C12.0702 18.7105 14.0394 18.5944 14.0394 18.5944H14.9319Z" fill="white"/>
</svg>