<svg width="29" height="28" viewBox="0 0 29 28" fill="none" xmlns="http://www.w3.org/2000/svg">
<path d="M0.800018 14C0.800018 6.26801 7.06803 0 14.8 0C22.532 0 28.8 6.26801 28.8 14C28.8 21.732 22.532 28 14.8 28C7.06803 28 0.800018 21.732 0.800018 14Z" fill="#FF0000"/>
<path d="M21.9546 10.5427C21.7829 9.88296 21.2768 9.36343 20.6343 9.18711C19.4698 8.86667 14.8 8.86667 14.8 8.86667C14.8 8.86667 10.1302 8.86667 8.96566 9.18711C8.3231 9.36343 7.81706 9.88296 7.64533 10.5427C7.33334 11.7384 7.33334 14.2333 7.33334 14.2333C7.33334 14.2333 7.33334 16.7281 7.64533 17.924C7.81706 18.5837 8.3231 19.1032 8.96566 19.2796C10.1302 19.6 14.8 19.6 14.8 19.6C14.8 19.6 19.4698 19.6 20.6343 19.2796C21.2768 19.1032 21.7829 18.5837 21.9546 17.924C22.2667 16.7281 22.2667 14.2333 22.2667 14.2333C22.2667 14.2333 22.2667 11.7384 21.9546 10.5427Z" fill="white"/>
<path d="M13.4 16.8V12.1333L17.1333 14.4668L13.4 16.8Z" fill="#FF0000"/>
</svg>