<svg width="30" height="32" viewBox="0 0 30 32" fill="none" xmlns="http://www.w3.org/2000/svg">
<g opacity="0.7">
<path d="M0 15.8036C0 7.0755 6.71573 0 15 0C23.2843 0 30 7.0755 30 15.8036C30 24.5316 23.2843 31.6071 15 31.6071C6.71573 31.6071 0 24.5316 0 15.8036Z" fill="#FF0000"/>
<path d="M22.6656 11.9008C22.4816 11.156 21.9395 10.5695 21.251 10.3705C20.0034 10.0088 15 10.0088 15 10.0088C15 10.0088 9.99664 10.0088 8.74891 10.3705C8.06045 10.5695 7.51827 11.156 7.33427 11.9008C7 13.2505 7 16.0668 7 16.0668C7 16.0668 7 18.883 7.33427 20.2329C7.51827 20.9776 8.06045 21.5641 8.74891 21.7632C9.99664 22.1249 15 22.1249 15 22.1249C15 22.1249 20.0034 22.1249 21.251 21.7632C21.9395 21.5641 22.4816 20.9776 22.6656 20.2329C23 18.883 23 16.0668 23 16.0668C23 16.0668 23 13.2505 22.6656 11.9008Z" fill="white"/>
<path d="M13.5 18.9641V13.6963L17.5 16.3303L13.5 18.9641Z" fill="#FF0000"/>
</g>
</svg>
